<?xml version="1.0" encoding="UTF-8"?>
<svg id="Capa_2" data-name="Capa 2" xmlns="http://www.w3.org/2000/svg" xmlns:xlink="http://www.w3.org/1999/xlink" viewBox="0 0 469 148">
  <defs>
    <style>
      .cls-1 {
        font-family: Inter-Regular, Inter;
        font-variation-settings: 'wght' 400, 'slnt' 0;
      }

      .cls-2 {
        fill: #fff;
        font-size: 26.16px;
      }

      .cls-3, .cls-4 {
        font-family: Inter-Bold, Inter;
        font-variation-settings: 'wght' 700, 'slnt' 0;
        font-weight: 700;
      }

      .cls-4 {
        letter-spacing: -.03em;
      }

      .cls-5 {
        font-family: AppleColorEmoji, 'Apple Color Emoji';
      }

      .cls-6 {
        fill: #0096fa;
        filter: url(#drop-shadow-1);
      }

      .cls-7 {
        letter-spacing: -.02em;
      }

      .cls-8 {
        letter-spacing: 0em;
      }

      .cls-9 {
        letter-spacing: .03em;
      }
    </style>
    <filter id="drop-shadow-1" x="0" y="0" width="469" height="148" filterUnits="userSpaceOnUse">
      <feOffset dx="11.3" dy="13.56"/>
      <feGaussianBlur result="blur" stdDeviation="6.78"/>
      <feFlood flood-color="#094b82" flood-opacity=".28"/>
      <feComposite in2="blur" operator="in"/>
      <feComposite in="SourceGraphic"/>
    </filter>
  </defs>
  <g id="globo_1" data-name="globo 1">
    <g>
      <path class="cls-6" d="M12.74,7.23h32.96s10.55,0,10.55,0h362.12c10.19,0,18.45,11.07,18.45,24.73v56.56c0,13.66-8.26,24.73-18.45,24.73H43.58c-10.19,0-18.45-11.07-18.45-24.73v-52.29S10.21,15.1,10.21,15.1c-2.1-2.97-.53-7.87,2.53-7.87Z"/>
      <text class="cls-2" transform="translate(60.52 56.63) scale(1.02 1)"><tspan class="cls-3" x="0" y="0">¡Hola! Jo</tspan><tspan class="cls-4" x="111.89" y="0">r</tspan><tspan class="cls-3" x="121.91" y="0">ge </tspan><tspan class="cls-5" x="160.18" y="0">👋</tspan><tspan class="cls-1" x="186.35" y="0"> </tspan><tspan class="cls-3"><tspan x="0" y="31.4">¿Cómo puedo </tspan><tspan class="cls-7" x="183.62" y="31.4">a</tspan><tspan x="198.29" y="31.4">yuda</tspan><tspan class="cls-9" x="261.69" y="31.4">r</tspan><tspan class="cls-8" x="273.1" y="31.4">t</tspan><tspan x="283.11" y="31.4">e? </tspan></tspan></text>
    </g>
  </g>
</svg>