<?xml version="1.0" encoding="UTF-8"?>
<svg id="Capa_2" data-name="Capa 2" xmlns="http://www.w3.org/2000/svg" xmlns:xlink="http://www.w3.org/1999/xlink" viewBox="0 0 535 387">
  <defs>
    <style>
      .cls-1 {
        fill: #664e27;
      }

      .cls-2 {
        fill: #ffe54d;
      }

      .cls-3 {
        fill: #ffdd67;
      }

      .cls-4 {
        fill: #ff73c0;
      }

      .cls-5 {
        fill: #6adbc6;
      }

      .cls-6 {
        fill: #fff;
      }

      .cls-7 {
        fill: #eba352;
      }

      .cls-8 {
        fill: #917524;
      }

      .cls-9 {
        fill: #0096fa;
        filter: url(#drop-shadow-1);
      }
    </style>
    <filter id="drop-shadow-1" x="0" y="0" width="535" height="387" filterUnits="userSpaceOnUse">
      <feOffset dx="13.54" dy="16.24"/>
      <feGaussianBlur result="blur" stdDeviation="8.12"/>
      <feFlood flood-color="#094b82" flood-opacity=".28"/>
      <feComposite in2="blur" operator="in"/>
      <feComposite in="SourceGraphic"/>
    </filter>
  </defs>
  <g id="globo_3" data-name="globo 3">
    <g>
      <path class="cls-9" d="M15.47,8.9h37.37s11.97,0,11.97,0h410.56c11.56,0,20.92,14,20.92,31.28v274.24c0,17.28-9.37,31.28-20.92,31.28H50.43c-11.56,0-20.92-14-20.92-31.28V45.57S12.6,18.86,12.6,18.86c-2.38-3.76-.6-9.96,2.87-9.96Z"/>
      <g>
        <path class="cls-6" d="M65.85,38.76c.6,0,1.12.22,1.57.65.45.43.68.96.69,1.58,0,.61-.24,1.13-.69,1.56s-.98.65-1.57.65-1.16-.22-1.6-.65-.67-.95-.66-1.56c0-.41.09-.79.3-1.12.2-.33.48-.6.83-.8.35-.2.73-.3,1.14-.3ZM67.94,58.03h-4.2l.38-13.32h3.45l.37,13.32Z"/>
        <path class="cls-6" d="M83.77,34.19h4.08v12.36c0,1.39-.33,2.6-1,3.64s-1.6,1.85-2.81,2.43c-1.2.58-2.6.87-4.2.87s-3.01-.29-4.21-.87c-1.2-.58-2.13-1.39-2.8-2.43s-1-2.25-1-3.64v-12.36h4.08v12.01c0,.72.16,1.37.49,1.93s.78,1.01,1.37,1.33c.59.32,1.28.48,2.07.48s1.48-.16,2.07-.48c.59-.32,1.04-.77,1.37-1.33s.49-1.21.49-1.93v-12.01Z"/>
        <path class="cls-6" d="M91.13,58.57v-19.62h3.96v2.4h.18c.18-.38.43-.78.77-1.18.34-.4.78-.73,1.32-1,.54-.27,1.22-.4,2.03-.4,1.06,0,2.03.27,2.92.81.89.54,1.61,1.36,2.14,2.44.53,1.09.8,2.45.8,4.08s-.26,2.93-.78,4.03-1.22,1.92-2.11,2.48c-.89.56-1.88.84-2.98.84-.78,0-1.44-.13-1.99-.38s-.99-.57-1.33-.96c-.35-.39-.61-.78-.79-1.18h-.12v7.64h-4.02ZM95.06,46.08c0,.85.12,1.59.36,2.22.24.63.58,1.12,1.04,1.47.45.35,1,.52,1.65.52s1.21-.18,1.66-.53c.45-.36.8-.85,1.03-1.49.24-.63.35-1.37.35-2.2s-.12-1.55-.35-2.17-.58-1.11-1.03-1.47-1.01-.53-1.67-.53-1.21.17-1.65.51c-.45.34-.79.82-1.03,1.45-.24.63-.36,1.36-.36,2.21Z"/>
        <path class="cls-6" d="M119.98,43.02l-3.68.22c-.06-.31-.2-.59-.41-.84s-.48-.45-.82-.6c-.34-.15-.74-.23-1.2-.23-.62,0-1.15.13-1.58.39-.43.26-.64.6-.64,1.03,0,.34.14.63.42.86.28.24.75.42,1.42.57l2.62.52c1.41.29,2.46.74,3.15,1.38.69.63,1.04,1.46,1.04,2.49,0,.94-.28,1.76-.83,2.46-.56.71-1.32,1.26-2.28,1.65-.97.39-2.08.59-3.33.59-1.92,0-3.44-.4-4.58-1.18-1.13-.79-1.8-1.87-1.99-3.23l3.95-.2c.12.58.41,1.01.87,1.31.46.3,1.05.45,1.76.45s1.27-.13,1.7-.4c.43-.27.65-.62.66-1.05,0-.36-.16-.66-.46-.89-.3-.23-.77-.41-1.4-.53l-2.51-.49c-1.42-.28-2.47-.76-3.15-1.45s-1.03-1.56-1.03-2.63c0-.92.25-1.71.76-2.37.51-.66,1.22-1.17,2.14-1.53.92-.36,2-.54,3.24-.54,1.83,0,3.27.38,4.32,1.14,1.05.76,1.67,1.8,1.84,3.11Z"/>
        <path class="cls-6" d="M125.55,53.46c-.62,0-1.16-.22-1.6-.66-.45-.44-.67-.96-.66-1.57,0-.61.21-1.13.66-1.56.45-.43.98-.65,1.6-.65s1.12.22,1.57.65c.45.43.68.95.69,1.56,0,.41-.11.78-.33,1.12-.21.34-.49.61-.83.81s-.71.3-1.11.3ZM127.65,34.19l-.37,13.32h-3.45l-.38-13.32h4.2Z"/>
        <g>
          <ellipse class="cls-3" cx="149.3" cy="44.06" rx="12.45" ry="12.26"/>
          <path class="cls-1" d="M146.62,42.57c.56,1.19-.17,2.7-1.63,3.38-1.47.67-3.11.25-3.68-.94-.36-.76,4.95-3.2,5.31-2.44Z"/>
          <path class="cls-1" d="M151.98,42.57c-.56,1.19.17,2.7,1.63,3.38,1.47.67,3.11.25,3.68-.94.36-.76-4.95-3.2-5.31-2.44Z"/>
          <path class="cls-8" d="M145.46,39.08c-1.13,1.33-3.83,2.57-5.59,2.57-.24,0-.3.89,0,.89,2.03,0,4.99-1.35,6.29-2.89.19-.23-.54-.76-.7-.57Z"/>
          <path class="cls-8" d="M153.14,39.08c1.12,1.33,3.83,2.57,5.59,2.57.24,0,.3.89,0,.89-2.03,0-4.99-1.35-6.29-2.89-.19-.23.54-.76.7-.57Z"/>
          <path class="cls-1" d="M152.86,49.96c-2.24-1.04-4.89-1.04-7.14,0-.56.26.14,1.7.69,1.43,1.48-.68,3.69-.94,5.76,0,.55.25,1.28-1.15.69-1.43Z"/>
        </g>
        <path class="cls-6" d="M170.42,53.22v-19.03h7.62c1.46,0,2.71.27,3.74.82,1.03.55,1.82,1.31,2.36,2.28.54.97.82,2.09.82,3.35s-.28,2.38-.83,3.34-1.35,1.72-2.4,2.26-2.31.81-3.8.81h-4.86v-3.22h4.2c.79,0,1.43-.13,1.95-.4.51-.27.9-.64,1.15-1.12.25-.48.38-1.03.38-1.66s-.13-1.18-.38-1.66c-.25-.47-.64-.84-1.16-1.11-.52-.26-1.17-.39-1.96-.39h-2.75v15.74h-4.08Z"/>
        <path class="cls-6" d="M191.29,53.49c-.92,0-1.75-.16-2.47-.48-.72-.32-1.29-.79-1.71-1.42-.42-.63-.63-1.41-.63-2.36,0-.79.15-1.46.44-2,.3-.54.7-.97,1.21-1.3.51-.33,1.09-.58,1.74-.74.65-.17,1.33-.28,2.05-.35.84-.09,1.52-.17,2.04-.25.52-.08.89-.19,1.12-.35.23-.15.35-.38.35-.69v-.06c0-.59-.19-1.04-.56-1.37-.37-.32-.9-.48-1.59-.48-.72,0-1.3.16-1.73.47-.43.31-.71.7-.85,1.18l-3.72-.3c.19-.87.56-1.62,1.11-2.25s1.27-1.12,2.15-1.47,1.89-.52,3.05-.52c.8,0,1.58.09,2.32.28.74.19,1.4.47,1.97.86.58.39,1.03.89,1.36,1.5.33.61.5,1.34.5,2.19v9.63h-3.81v-1.98h-.11c-.23.45-.54.84-.93,1.18-.39.34-.86.6-1.41.79-.55.19-1.18.28-1.9.28ZM192.44,50.76c.59,0,1.11-.12,1.57-.35s.81-.55,1.07-.94.39-.85.39-1.35v-1.51c-.13.08-.3.15-.51.22-.22.06-.46.12-.73.18-.27.05-.54.1-.81.14-.27.04-.52.08-.74.11-.47.07-.88.18-1.24.33s-.63.35-.82.6c-.2.25-.29.56-.29.93,0,.54.2.95.6,1.23s.91.42,1.52.42Z"/>
        <path class="cls-6" d="M202.56,53.22v-14.27h3.9v2.49h.15c.26-.89.71-1.56,1.33-2.01.62-.46,1.34-.68,2.15-.68.2,0,.42.01.65.04.23.02.44.06.61.1v3.51c-.19-.06-.45-.1-.78-.15-.33-.04-.64-.06-.91-.06-.59,0-1.12.13-1.58.38-.46.25-.83.6-1.09,1.05s-.4.96-.4,1.54v8.07h-4.02Z"/>
        <path class="cls-6" d="M219.34,53.5c-1.49,0-2.77-.3-3.84-.9-1.07-.6-1.9-1.45-2.48-2.55-.58-1.1-.87-2.4-.87-3.91s.29-2.76.87-3.87c.58-1.11,1.39-1.97,2.45-2.59,1.05-.62,2.29-.93,3.71-.93.96,0,1.85.15,2.67.45.83.3,1.55.75,2.17,1.35.62.6,1.1,1.35,1.45,2.26.35.91.52,1.97.52,3.18v1.09h-12.23v-2.45h8.45c0-.57-.13-1.07-.38-1.51-.25-.44-.6-.79-1.04-1.04-.44-.25-.96-.38-1.54-.38s-1.15.14-1.62.41c-.47.28-.83.64-1.1,1.11-.26.46-.4.97-.41,1.54v2.33c0,.71.13,1.32.4,1.83s.65.91,1.14,1.19c.49.28,1.07.42,1.74.42.45,0,.85-.06,1.23-.19.37-.12.69-.31.95-.56.26-.25.47-.55.6-.91l3.72.24c-.19.88-.57,1.65-1.16,2.3-.58.65-1.33,1.16-2.24,1.52-.92.36-1.97.54-3.16.54Z"/>
        <path class="cls-6" d="M235.16,53.5c-1.48,0-2.76-.31-3.82-.93-1.07-.62-1.88-1.49-2.45-2.6-.57-1.11-.85-2.38-.85-3.83s.29-2.75.86-3.85c.58-1.11,1.39-1.97,2.46-2.59,1.06-.62,2.33-.93,3.79-.93,1.26,0,2.37.23,3.32.68.95.45,1.7,1.09,2.25,1.9.55.82.86,1.78.91,2.88h-3.79c-.11-.71-.39-1.29-.84-1.72-.46-.44-1.05-.65-1.79-.65-.62,0-1.16.17-1.63.5-.46.33-.82.81-1.08,1.44s-.39,1.4-.39,2.29.13,1.68.38,2.32c.25.64.61,1.12,1.08,1.46s1.01.5,1.63.5c.46,0,.87-.09,1.24-.28.37-.19.67-.46.92-.81.24-.36.4-.79.48-1.29h3.79c-.06,1.09-.36,2.05-.9,2.88-.54.83-1.28,1.47-2.22,1.94-.94.46-2.06.7-3.35.7Z"/>
        <path class="cls-6" d="M250.81,53.5c-1.49,0-2.77-.3-3.84-.9-1.07-.6-1.9-1.45-2.48-2.55-.58-1.1-.87-2.4-.87-3.91s.29-2.76.87-3.87c.58-1.11,1.39-1.97,2.45-2.59,1.05-.62,2.29-.93,3.71-.93.96,0,1.85.15,2.67.45.83.3,1.55.75,2.17,1.35.62.6,1.1,1.35,1.45,2.26.35.91.52,1.97.52,3.18v1.09h-12.23v-2.45h8.45c0-.57-.13-1.07-.38-1.51-.25-.44-.6-.79-1.04-1.04-.44-.25-.96-.38-1.54-.38s-1.15.14-1.62.41c-.47.28-.83.64-1.1,1.11-.26.46-.4.97-.41,1.54v2.33c0,.71.13,1.32.4,1.83s.65.91,1.14,1.19c.49.28,1.07.42,1.74.42.45,0,.85-.06,1.23-.19.37-.12.69-.31.95-.56.26-.25.47-.55.6-.91l3.72.24c-.19.88-.57,1.65-1.16,2.3-.58.65-1.33,1.16-2.24,1.52-.92.36-1.97.54-3.16.54Z"/>
        <path class="cls-6" d="M275.81,58.57v-7.64h-.12c-.19.4-.45.79-.8,1.18-.34.39-.79.71-1.33.96s-1.21.38-1.99.38c-1.1,0-2.1-.28-2.98-.84s-1.59-1.39-2.11-2.48-.78-2.44-.78-4.03.27-3,.8-4.08c.53-1.09,1.25-1.9,2.14-2.44.89-.54,1.87-.81,2.93-.81.81,0,1.49.13,2.03.4.54.27.98.6,1.32,1s.59.79.77,1.18h.17v-2.4h3.96v19.62h-4.01ZM272.85,50.3c.65,0,1.2-.17,1.65-.52.45-.35.8-.84,1.04-1.47.24-.63.36-1.37.36-2.22s-.12-1.59-.36-2.21c-.24-.63-.58-1.11-1.04-1.45-.45-.34-1-.51-1.65-.51s-1.22.18-1.67.53-.8.84-1.03,1.47c-.23.63-.35,1.35-.35,2.17s.12,1.56.35,2.2.58,1.13,1.03,1.49c.45.36,1,.53,1.66.53Z"/>
        <path class="cls-6" d="M292.33,47.14v-8.19h4.02v14.27h-3.86v-2.59h-.15c-.33.84-.87,1.51-1.63,2.02-.76.51-1.68.76-2.77.76-.97,0-1.82-.22-2.56-.65-.74-.43-1.31-1.05-1.72-1.85-.41-.8-.62-1.76-.63-2.87v-9.09h4.02v8.38c0,.84.24,1.51.69,2,.45.49,1.06.73,1.82.73.48,0,.94-.11,1.36-.33.42-.22.76-.55,1.02-.98s.39-.97.38-1.61Z"/>
        <path class="cls-6" d="M306.15,53.5c-1.49,0-2.77-.3-3.84-.9-1.07-.6-1.9-1.45-2.48-2.55-.58-1.1-.87-2.4-.87-3.91s.29-2.76.87-3.87c.58-1.11,1.39-1.97,2.45-2.59,1.05-.62,2.29-.93,3.71-.93.96,0,1.85.15,2.67.45.83.3,1.55.75,2.17,1.35.62.6,1.1,1.35,1.45,2.26.35.91.52,1.97.52,3.18v1.09h-12.23v-2.45h8.45c0-.57-.13-1.07-.38-1.51-.25-.44-.6-.79-1.04-1.04-.44-.25-.96-.38-1.54-.38s-1.15.14-1.62.41c-.47.28-.83.64-1.1,1.11-.26.46-.4.97-.41,1.54v2.33c0,.71.13,1.32.4,1.83s.65.91,1.14,1.19c.49.28,1.07.42,1.74.42.45,0,.85-.06,1.23-.19.37-.12.69-.31.95-.56.26-.25.47-.55.6-.91l3.72.24c-.19.88-.57,1.65-1.16,2.3-.58.65-1.33,1.16-2.24,1.52-.92.36-1.97.54-3.16.54Z"/>
        <path class="cls-6" d="M325.71,53.49c-.92,0-1.75-.16-2.47-.48-.72-.32-1.29-.79-1.71-1.42-.42-.63-.63-1.41-.63-2.36,0-.79.15-1.46.44-2,.3-.54.7-.97,1.21-1.3.51-.33,1.09-.58,1.74-.74.65-.17,1.33-.28,2.05-.35.84-.09,1.52-.17,2.04-.25.52-.08.89-.19,1.12-.35.23-.15.35-.38.35-.69v-.06c0-.59-.19-1.04-.56-1.37-.37-.32-.9-.48-1.59-.48-.72,0-1.3.16-1.73.47-.43.31-.71.7-.85,1.18l-3.72-.3c.19-.87.56-1.62,1.11-2.25s1.27-1.12,2.15-1.47,1.89-.52,3.05-.52c.8,0,1.58.09,2.32.28.74.19,1.4.47,1.97.86.58.39,1.03.89,1.36,1.5.33.61.5,1.34.5,2.19v9.63h-3.81v-1.98h-.11c-.23.45-.54.84-.93,1.18-.39.34-.86.6-1.41.79-.55.19-1.18.28-1.9.28ZM326.86,50.76c.59,0,1.11-.12,1.57-.35s.81-.55,1.07-.94.39-.85.39-1.35v-1.51c-.13.08-.3.15-.51.22-.22.06-.46.12-.73.18-.27.05-.54.1-.81.14-.27.04-.52.08-.74.11-.47.07-.88.18-1.24.33s-.63.35-.82.6c-.2.25-.29.56-.29.93,0,.54.2.95.6,1.23s.91.42,1.52.42Z"/>
        <path class="cls-6" d="M341.01,34.19v19.03h-4.02v-19.03h4.02Z"/>
        <path class="cls-6" d="M350.74,58.87c-1.3,0-2.42-.18-3.34-.52-.93-.35-1.66-.83-2.21-1.43s-.9-1.28-1.07-2.03l3.72-.49c.11.28.29.55.54.8.25.25.57.45.98.6.41.15.9.23,1.49.23.87,0,1.6-.21,2.16-.63.57-.42.85-1.12.85-2.1v-2.61h-.17c-.18.4-.44.77-.79,1.12s-.81.64-1.36.86c-.55.22-1.21.33-1.98.33-1.09,0-2.08-.25-2.97-.75s-1.6-1.26-2.12-2.29-.79-2.34-.79-3.92.27-2.97.8-4.05c.53-1.08,1.25-1.9,2.14-2.43s1.87-.81,2.93-.81c.81,0,1.49.13,2.04.4s.99.6,1.33,1c.34.4.6.79.78,1.18h.15v-2.4h3.99v14.41c0,1.21-.3,2.23-.91,3.05-.6.82-1.44,1.43-2.5,1.84-1.07.41-2.29.62-3.67.62ZM350.83,50.04c.65,0,1.2-.16,1.65-.48.45-.32.8-.78,1.04-1.38.24-.6.36-1.31.36-2.15s-.12-1.56-.36-2.18c-.24-.62-.58-1.09-1.04-1.44-.45-.34-1-.51-1.65-.51s-1.22.18-1.67.52c-.45.35-.8.83-1.03,1.45-.23.62-.35,1.33-.35,2.15s.12,1.53.35,2.13c.24.6.58,1.06,1.03,1.38.45.33,1,.49,1.66.49Z"/>
        <path class="cls-6" d="M367.58,53.5c-1.47,0-2.73-.31-3.8-.92-1.07-.62-1.89-1.48-2.47-2.58-.58-1.11-.87-2.39-.87-3.85s.29-2.76.87-3.87c.58-1.11,1.4-1.97,2.47-2.58,1.07-.62,2.33-.92,3.8-.92s2.73.31,3.8.92c1.07.62,1.89,1.48,2.47,2.58.58,1.11.87,2.4.87,3.87s-.29,2.75-.87,3.85c-.58,1.11-1.4,1.97-2.47,2.58-1.07.62-2.33.92-3.8.92ZM367.59,50.43c.67,0,1.22-.19,1.67-.56.45-.37.78-.89,1.01-1.54s.34-1.39.34-2.22-.11-1.57-.34-2.22-.57-1.16-1.01-1.54c-.45-.38-1-.57-1.67-.57s-1.24.19-1.69.57c-.46.38-.8.89-1.03,1.54s-.34,1.39-.34,2.22.11,1.57.34,2.22.57,1.16,1.03,1.54c.46.38,1.02.56,1.69.56Z"/>
        <path class="cls-6" d="M395.54,43.02l-3.68.22c-.06-.31-.2-.59-.41-.84-.21-.25-.48-.45-.81-.6-.34-.15-.74-.23-1.2-.23-.62,0-1.15.13-1.58.39-.43.26-.64.6-.64,1.03,0,.34.14.63.42.86.28.24.75.42,1.42.57l2.62.52c1.41.29,2.46.74,3.15,1.38.69.63,1.04,1.46,1.04,2.49,0,.94-.28,1.76-.83,2.46-.56.71-1.32,1.26-2.28,1.65-.96.39-2.08.59-3.33.59-1.92,0-3.44-.4-4.58-1.18-1.13-.79-1.8-1.87-1.99-3.23l3.95-.2c.12.58.41,1.01.87,1.31.46.3,1.05.45,1.76.45s1.27-.13,1.7-.4c.43-.27.65-.62.65-1.05,0-.36-.16-.66-.46-.89-.3-.23-.77-.41-1.4-.53l-2.51-.49c-1.42-.28-2.47-.76-3.15-1.45s-1.03-1.56-1.03-2.63c0-.92.25-1.71.76-2.37.51-.66,1.22-1.17,2.14-1.53.92-.36,2-.54,3.24-.54,1.83,0,3.27.38,4.32,1.14s1.67,1.8,1.84,3.11Z"/>
        <path class="cls-6" d="M405.01,53.5c-1.49,0-2.77-.3-3.84-.9s-1.9-1.45-2.48-2.55-.87-2.4-.87-3.91.29-2.76.87-3.87c.58-1.11,1.39-1.97,2.45-2.59,1.05-.62,2.29-.93,3.71-.93.96,0,1.85.15,2.67.45.83.3,1.55.75,2.17,1.35.62.6,1.1,1.35,1.45,2.26.35.91.52,1.97.52,3.18v1.09h-12.23v-2.45h8.45c0-.57-.12-1.07-.38-1.51s-.6-.79-1.04-1.04-.96-.38-1.54-.38-1.15.14-1.62.41c-.47.28-.83.64-1.1,1.11-.26.46-.4.97-.41,1.54v2.33c0,.71.13,1.32.4,1.83.27.51.65.91,1.14,1.19.49.28,1.07.42,1.74.42.45,0,.86-.06,1.23-.19.37-.12.69-.31.95-.56s.46-.55.6-.91l3.72.24c-.19.88-.57,1.65-1.16,2.3-.58.65-1.33,1.16-2.24,1.52-.92.36-1.97.54-3.16.54Z"/>
        <path class="cls-6" d="M69.68,84.89c-1.48,0-2.76-.31-3.82-.93-1.07-.62-1.88-1.49-2.45-2.6-.57-1.11-.85-2.38-.85-3.83s.29-2.75.86-3.85c.58-1.11,1.39-1.97,2.46-2.59,1.06-.62,2.33-.93,3.79-.93,1.26,0,2.37.23,3.32.68.95.45,1.7,1.09,2.25,1.9.55.82.86,1.78.91,2.88h-3.79c-.11-.71-.39-1.29-.84-1.72-.46-.44-1.05-.65-1.79-.65-.62,0-1.16.17-1.63.5-.46.33-.82.81-1.08,1.44s-.39,1.4-.39,2.29.13,1.68.38,2.32c.25.64.61,1.12,1.08,1.46s1.01.5,1.63.5c.46,0,.87-.09,1.24-.28.37-.19.67-.46.92-.81.24-.36.4-.79.48-1.29h3.79c-.06,1.09-.36,2.05-.9,2.88-.54.83-1.28,1.47-2.22,1.94-.94.46-2.06.7-3.35.7Z"/>
        <path class="cls-6" d="M78.74,84.62v-14.27h3.9v2.49h.15c.26-.89.71-1.56,1.33-2.01.62-.46,1.34-.68,2.15-.68.2,0,.42.01.65.04.23.02.44.06.61.1v3.51c-.19-.06-.45-.1-.78-.15-.33-.04-.64-.06-.91-.06-.59,0-1.12.13-1.58.38-.46.25-.83.6-1.09,1.05s-.4.96-.4,1.54v8.07h-4.02Z"/>
        <path class="cls-6" d="M98.88,78.54v-8.19h4.02v14.27h-3.86v-2.59h-.15c-.33.84-.87,1.51-1.63,2.02-.76.51-1.68.76-2.77.76-.97,0-1.82-.22-2.56-.65-.74-.43-1.31-1.05-1.72-1.85-.41-.8-.62-1.76-.63-2.87v-9.09h4.02v8.38c0,.84.24,1.51.69,2,.45.49,1.06.73,1.82.73.48,0,.94-.11,1.36-.33.42-.22.76-.55,1.02-.98s.39-.97.38-1.61Z"/>
        <path class="cls-6" d="M106.03,84.62v-2.36l7.09-8.65v-.1h-6.85v-3.16h11.69v2.57l-6.66,8.44v.1h6.9v3.16h-12.18Z"/>
        <path class="cls-6" d="M127.42,84.89c-1.47,0-2.73-.31-3.8-.92-1.07-.62-1.89-1.48-2.47-2.58-.58-1.11-.87-2.39-.87-3.85s.29-2.76.87-3.87c.58-1.11,1.4-1.97,2.47-2.58,1.07-.62,2.33-.92,3.8-.92s2.73.31,3.8.92c1.07.62,1.89,1.48,2.47,2.58.58,1.11.87,2.4.87,3.87s-.29,2.75-.87,3.85c-.58,1.11-1.4,1.97-2.47,2.58-1.07.62-2.33.92-3.8.92ZM127.44,81.83c.67,0,1.22-.19,1.67-.56.45-.37.78-.89,1.01-1.54s.34-1.39.34-2.22-.11-1.57-.34-2.22-.57-1.16-1.01-1.54c-.45-.38-1-.57-1.67-.57s-1.24.19-1.69.57c-.46.38-.8.89-1.03,1.54s-.34,1.39-.34,2.22.11,1.57.34,2.22.57,1.16,1.03,1.54c.46.38,1.02.56,1.69.56ZM125.98,68.5l2-4.23h3.72l-2.88,4.23h-2.84Z"/>
        <path class="cls-6" d="M149.93,84.89c-1.49,0-2.77-.3-3.84-.9-1.07-.6-1.9-1.45-2.48-2.55-.58-1.1-.87-2.4-.87-3.91s.29-2.76.87-3.87c.58-1.11,1.39-1.97,2.45-2.59,1.05-.62,2.29-.93,3.71-.93.96,0,1.85.15,2.67.45.83.3,1.55.75,2.17,1.35.62.6,1.1,1.35,1.45,2.26.35.91.52,1.97.52,3.18v1.09h-12.23v-2.45h8.45c0-.57-.13-1.07-.38-1.51-.25-.44-.6-.79-1.04-1.04-.44-.25-.96-.38-1.54-.38s-1.15.14-1.62.41c-.47.28-.83.64-1.1,1.11-.26.46-.4.97-.41,1.54v2.33c0,.71.13,1.32.4,1.83s.65.91,1.14,1.19c.49.28,1.07.42,1.74.42.45,0,.85-.06,1.23-.19.37-.12.69-.31.95-.56.26-.25.47-.55.6-.91l3.72.24c-.19.88-.57,1.65-1.16,2.3-.58.65-1.33,1.16-2.24,1.52-.92.36-1.97.54-3.16.54Z"/>
        <path class="cls-6" d="M163.22,76.36v8.25h-4.02v-14.27h3.83v2.52h.17c.32-.83.86-1.49,1.61-1.97.75-.49,1.67-.73,2.74-.73,1.01,0,1.88.22,2.63.65.75.43,1.33,1.05,1.74,1.85.42.8.62,1.76.62,2.87v9.09h-4.02v-8.38c0-.87-.22-1.56-.68-2.05-.46-.49-1.09-.74-1.9-.74-.54,0-1.02.11-1.43.34-.41.23-.73.56-.96,1s-.35.96-.35,1.57Z"/>
        <path class="cls-6" d="M188.47,84.89c-1.49,0-2.77-.3-3.84-.9-1.07-.6-1.9-1.45-2.48-2.55-.58-1.1-.87-2.4-.87-3.91s.29-2.76.87-3.87c.58-1.11,1.39-1.97,2.45-2.59,1.05-.62,2.29-.93,3.71-.93.96,0,1.85.15,2.67.45.83.3,1.55.75,2.17,1.35.62.6,1.1,1.35,1.45,2.26.35.91.52,1.97.52,3.18v1.09h-12.23v-2.45h8.45c0-.57-.13-1.07-.38-1.51-.25-.44-.6-.79-1.04-1.04-.44-.25-.96-.38-1.54-.38s-1.15.14-1.62.41c-.47.28-.83.64-1.1,1.11-.26.46-.4.97-.41,1.54v2.33c0,.71.13,1.32.4,1.83s.65.91,1.14,1.19c.49.28,1.07.42,1.74.42.45,0,.85-.06,1.23-.19.37-.12.69-.31.95-.56.26-.25.47-.55.6-.91l3.72.24c-.19.88-.57,1.65-1.16,2.3-.58.65-1.33,1.16-2.24,1.52-.92.36-1.97.54-3.16.54Z"/>
        <path class="cls-6" d="M201.76,65.59v19.03h-4.02v-19.03h4.02Z"/>
        <path class="cls-6" d="M217.67,84.89c-1.48,0-2.76-.31-3.82-.93-1.07-.62-1.88-1.49-2.45-2.6-.57-1.11-.85-2.38-.85-3.83s.29-2.75.86-3.85c.58-1.11,1.39-1.97,2.46-2.59,1.06-.62,2.33-.93,3.79-.93,1.26,0,2.37.23,3.32.68.95.45,1.7,1.09,2.25,1.9.55.82.86,1.78.91,2.88h-3.79c-.11-.71-.39-1.29-.84-1.72-.46-.44-1.05-.65-1.79-.65-.62,0-1.16.17-1.63.5-.46.33-.82.81-1.08,1.44s-.39,1.4-.39,2.29.13,1.68.38,2.32c.25.64.61,1.12,1.08,1.46s1.01.5,1.63.5c.46,0,.87-.09,1.24-.28.37-.19.67-.46.92-.81.24-.36.4-.79.48-1.29h3.79c-.06,1.09-.36,2.05-.9,2.88-.54.83-1.28,1.47-2.22,1.94-.94.46-2.06.7-3.35.7Z"/>
        <path class="cls-6" d="M230.86,84.88c-.92,0-1.75-.16-2.47-.48-.72-.32-1.29-.79-1.71-1.42-.42-.63-.63-1.41-.63-2.36,0-.79.15-1.46.44-2,.3-.54.7-.97,1.21-1.3.51-.33,1.09-.58,1.74-.74.65-.17,1.33-.28,2.05-.35.84-.09,1.52-.17,2.04-.25.52-.08.89-.19,1.12-.35.23-.15.35-.38.35-.69v-.06c0-.59-.19-1.04-.56-1.37-.37-.32-.9-.48-1.59-.48-.72,0-1.3.16-1.73.47-.43.31-.71.7-.85,1.18l-3.72-.3c.19-.87.56-1.62,1.11-2.25s1.27-1.12,2.15-1.47,1.89-.52,3.05-.52c.8,0,1.58.09,2.32.28.74.19,1.4.47,1.97.86.58.39,1.03.89,1.36,1.5.33.61.5,1.34.5,2.19v9.63h-3.81v-1.98h-.11c-.23.45-.54.84-.93,1.18-.39.34-.86.6-1.41.79-.55.19-1.18.28-1.9.28ZM232.01,82.15c.59,0,1.11-.12,1.57-.35s.81-.55,1.07-.94.39-.85.39-1.35v-1.51c-.13.08-.3.15-.51.22-.22.06-.46.12-.73.18-.27.05-.54.1-.81.14-.27.04-.52.08-.74.11-.47.07-.88.18-1.24.33s-.63.35-.82.6c-.2.25-.29.56-.29.93,0,.54.2.95.6,1.23s.91.42,1.52.42Z"/>
        <path class="cls-6" d="M242.13,84.62v-14.27h3.83v2.52h.17c.3-.84.8-1.5,1.51-1.98.7-.48,1.55-.72,2.53-.72s1.84.24,2.54.73c.7.49,1.16,1.14,1.4,1.97h.15c.3-.82.83-1.47,1.61-1.97.78-.49,1.7-.74,2.76-.74,1.35,0,2.45.42,3.3,1.27s1.27,2.04,1.27,3.59v9.6h-4.01v-8.82c0-.79-.21-1.39-.64-1.78-.43-.4-.96-.59-1.6-.59-.73,0-1.3.23-1.71.68s-.61,1.05-.61,1.8v8.71h-3.9v-8.9c0-.7-.2-1.26-.61-1.67-.41-.42-.94-.62-1.6-.62-.45,0-.85.11-1.2.33-.35.22-.64.53-.84.92-.21.39-.31.85-.31,1.38v8.57h-4.02Z"/>
        <path class="cls-6" d="M268.37,68.5c-.6,0-1.11-.2-1.53-.59s-.64-.86-.64-1.41.21-1.02.64-1.42c.43-.39.94-.59,1.53-.59s1.11.2,1.53.59c.42.39.64.86.64,1.41s-.21,1.02-.64,1.42c-.42.39-.94.59-1.53.59ZM266.35,84.62v-14.27h4.02v14.27h-4.02Z"/>
        <path class="cls-6" d="M277.59,76.36v8.25h-4.02v-14.27h3.83v2.52h.17c.32-.83.86-1.49,1.61-1.97.75-.49,1.67-.73,2.74-.73,1.01,0,1.88.22,2.63.65.75.43,1.33,1.05,1.74,1.85.42.8.62,1.76.62,2.87v9.09h-4.02v-8.38c0-.87-.22-1.56-.68-2.05-.46-.49-1.09-.74-1.9-.74-.54,0-1.02.11-1.43.34-.41.23-.73.56-.96,1s-.35.96-.35,1.57Z"/>
        <path class="cls-6" d="M296.64,84.89c-1.47,0-2.73-.31-3.8-.92-1.07-.62-1.89-1.48-2.47-2.58-.58-1.11-.87-2.39-.87-3.85s.29-2.76.87-3.87c.58-1.11,1.4-1.97,2.47-2.58,1.07-.62,2.33-.92,3.8-.92s2.73.31,3.8.92c1.07.62,1.89,1.48,2.47,2.58.58,1.11.87,2.4.87,3.87s-.29,2.75-.87,3.85c-.58,1.11-1.4,1.97-2.47,2.58-1.07.62-2.33.92-3.8.92ZM296.65,81.83c.67,0,1.22-.19,1.67-.56.45-.37.78-.89,1.01-1.54s.34-1.39.34-2.22-.11-1.57-.34-2.22-.57-1.16-1.01-1.54c-.45-.38-1-.57-1.67-.57s-1.24.19-1.69.57c-.46.38-.8.89-1.03,1.54s-.34,1.39-.34,2.22.11,1.57.34,2.22.57,1.16,1.03,1.54c.46.38,1.02.56,1.69.56Z"/>
        <path class="cls-6" d="M308.73,84.86c-.62,0-1.16-.22-1.6-.66-.44-.44-.67-.96-.67-1.57s.22-1.13.67-1.56c.44-.43.98-.65,1.6-.65s1.13.22,1.58.65c.45.43.68.95.68,1.56,0,.41-.11.78-.32,1.12s-.49.61-.83.81c-.34.2-.71.3-1.12.3Z"/>
        <path class="cls-6" d="M63.22,116.01v-19.03h7.62c1.46,0,2.71.27,3.74.82,1.03.55,1.82,1.31,2.36,2.28.54.97.82,2.09.82,3.35s-.28,2.38-.83,3.34-1.35,1.72-2.4,2.26-2.31.81-3.8.81h-4.86v-3.22h4.2c.79,0,1.43-.13,1.95-.4.51-.27.9-.64,1.15-1.12.25-.48.38-1.03.38-1.66s-.13-1.18-.38-1.66c-.25-.47-.64-.84-1.16-1.11-.52-.26-1.17-.39-1.96-.39h-2.75v15.74h-4.08Z"/>
        <path class="cls-6" d="M84.09,116.28c-.92,0-1.75-.16-2.47-.48-.72-.32-1.29-.79-1.71-1.42-.42-.63-.63-1.41-.63-2.36,0-.79.15-1.46.44-2,.3-.54.7-.97,1.21-1.3.51-.33,1.09-.58,1.74-.74.65-.17,1.33-.28,2.05-.35.84-.09,1.52-.17,2.04-.25.52-.08.89-.19,1.12-.35.23-.15.35-.38.35-.69v-.06c0-.59-.19-1.04-.56-1.37-.37-.32-.9-.48-1.59-.48-.72,0-1.3.16-1.73.47-.43.31-.71.7-.85,1.18l-3.72-.3c.19-.87.56-1.62,1.11-2.25s1.27-1.12,2.15-1.47,1.89-.52,3.05-.52c.8,0,1.58.09,2.32.28.74.19,1.4.47,1.97.86.58.39,1.03.89,1.36,1.5.33.61.5,1.34.5,2.19v9.63h-3.81v-1.98h-.11c-.23.45-.54.84-.93,1.18-.39.34-.86.6-1.41.79-.55.19-1.18.28-1.9.28ZM85.24,113.55c.59,0,1.11-.12,1.57-.35s.81-.55,1.07-.94.39-.85.39-1.35v-1.51c-.13.08-.3.15-.51.22-.22.06-.46.12-.73.18-.27.05-.54.1-.81.14-.27.04-.52.08-.74.11-.47.07-.88.18-1.24.33s-.63.35-.82.6c-.2.25-.29.56-.29.93,0,.54.2.95.6,1.23s.91.42,1.52.42Z"/>
        <path class="cls-6" d="M95.36,116.01v-14.27h3.9v2.49h.15c.26-.89.71-1.56,1.33-2.01.62-.46,1.34-.68,2.15-.68.2,0,.42.01.65.04.23.02.44.06.61.1v3.51c-.19-.06-.45-.1-.78-.15-.33-.04-.64-.06-.91-.06-.59,0-1.12.13-1.58.38-.46.25-.83.6-1.09,1.05s-.4.96-.4,1.54v8.07h-4.02Z"/>
        <path class="cls-6" d="M109.94,116.28c-.92,0-1.75-.16-2.47-.48-.72-.32-1.29-.79-1.71-1.42-.42-.63-.63-1.41-.63-2.36,0-.79.15-1.46.44-2,.3-.54.7-.97,1.21-1.3.51-.33,1.09-.58,1.74-.74.65-.17,1.33-.28,2.05-.35.84-.09,1.52-.17,2.04-.25.52-.08.89-.19,1.12-.35.23-.15.35-.38.35-.69v-.06c0-.59-.19-1.04-.56-1.37-.37-.32-.9-.48-1.59-.48-.72,0-1.3.16-1.73.47-.43.31-.71.7-.85,1.18l-3.72-.3c.19-.87.56-1.62,1.11-2.25s1.27-1.12,2.15-1.47,1.89-.52,3.05-.52c.8,0,1.58.09,2.32.28.74.19,1.4.47,1.97.86.58.39,1.03.89,1.36,1.5.33.61.5,1.34.5,2.19v9.63h-3.81v-1.98h-.11c-.23.45-.54.84-.93,1.18-.39.34-.86.6-1.41.79-.55.19-1.18.28-1.9.28ZM111.1,113.55c.59,0,1.11-.12,1.57-.35s.81-.55,1.07-.94.39-.85.39-1.35v-1.51c-.13.08-.3.15-.51.22-.22.06-.46.12-.73.18-.27.05-.54.1-.81.14-.27.04-.52.08-.74.11-.47.07-.88.18-1.24.33s-.63.35-.82.6c-.2.25-.29.56-.29.93,0,.54.2.95.6,1.23s.91.42,1.52.42Z"/>
        <path class="cls-6" d="M139.43,105.81l-3.68.22c-.06-.31-.2-.59-.41-.84s-.48-.45-.82-.6c-.34-.15-.74-.23-1.2-.23-.62,0-1.15.13-1.58.39-.43.26-.64.6-.64,1.03,0,.34.14.63.42.86.28.24.75.42,1.42.57l2.62.52c1.41.29,2.46.74,3.15,1.38.69.63,1.04,1.46,1.04,2.49,0,.94-.28,1.76-.83,2.46-.56.71-1.32,1.26-2.28,1.65-.97.39-2.08.59-3.33.59-1.92,0-3.44-.4-4.58-1.18-1.13-.79-1.8-1.87-1.99-3.23l3.95-.2c.12.58.41,1.01.87,1.31.46.3,1.05.45,1.76.45s1.27-.13,1.7-.4c.43-.27.65-.62.66-1.05,0-.36-.16-.66-.46-.89-.3-.23-.77-.41-1.4-.53l-2.51-.49c-1.42-.28-2.47-.76-3.15-1.45s-1.03-1.56-1.03-2.63c0-.92.25-1.71.76-2.37.51-.66,1.22-1.17,2.14-1.53.92-.36,2-.54,3.24-.54,1.83,0,3.27.38,4.32,1.14,1.05.76,1.67,1.8,1.84,3.11Z"/>
        <path class="cls-6" d="M148.85,116.29c-1.47,0-2.73-.31-3.8-.92-1.07-.62-1.89-1.48-2.47-2.58-.58-1.11-.87-2.39-.87-3.85s.29-2.76.87-3.87c.58-1.11,1.4-1.97,2.47-2.58,1.07-.62,2.33-.92,3.8-.92s2.73.31,3.8.92c1.07.62,1.89,1.48,2.47,2.58.58,1.11.87,2.4.87,3.87s-.29,2.75-.87,3.85c-.58,1.11-1.4,1.97-2.47,2.58-1.07.62-2.33.92-3.8.92ZM148.86,113.22c.67,0,1.22-.19,1.67-.56.45-.37.78-.89,1.01-1.54s.34-1.39.34-2.22-.11-1.57-.34-2.22-.57-1.16-1.01-1.54c-.45-.38-1-.57-1.67-.57s-1.24.19-1.69.57c-.46.38-.8.89-1.03,1.54s-.34,1.39-.34,2.22.11,1.57.34,2.22.57,1.16,1.03,1.54c.46.38,1.02.56,1.69.56Z"/>
        <path class="cls-6" d="M162.61,96.98v19.03h-4.02v-19.03h4.02Z"/>
        <path class="cls-6" d="M175.11,109.94v-8.19h4.02v14.27h-3.86v-2.59h-.15c-.33.84-.87,1.51-1.63,2.02-.76.51-1.68.76-2.77.76-.97,0-1.82-.22-2.56-.65-.74-.43-1.31-1.05-1.72-1.85-.41-.8-.62-1.76-.63-2.87v-9.09h4.02v8.38c0,.84.24,1.51.69,2,.45.49,1.06.73,1.82.73.48,0,.94-.11,1.36-.33.42-.22.76-.55,1.02-.98s.39-.97.38-1.61Z"/>
        <path class="cls-6" d="M188.88,116.29c-1.48,0-2.76-.31-3.82-.93-1.07-.62-1.88-1.49-2.45-2.6-.57-1.11-.85-2.38-.85-3.83s.29-2.75.86-3.85c.58-1.11,1.39-1.97,2.46-2.59,1.06-.62,2.33-.93,3.79-.93,1.26,0,2.37.23,3.32.68.95.45,1.7,1.09,2.25,1.9.55.82.86,1.78.91,2.88h-3.79c-.11-.71-.39-1.29-.84-1.72-.46-.44-1.05-.65-1.79-.65-.62,0-1.16.17-1.63.5-.46.33-.82.81-1.08,1.44s-.39,1.4-.39,2.29.13,1.68.38,2.32c.25.64.61,1.12,1.08,1.46s1.01.5,1.63.5c.46,0,.87-.09,1.24-.28.37-.19.67-.46.92-.81.24-.36.4-.79.48-1.29h3.79c-.06,1.09-.36,2.05-.9,2.88-.54.83-1.28,1.47-2.22,1.94-.94.46-2.06.7-3.35.7Z"/>
        <path class="cls-6" d="M199.95,99.9c-.6,0-1.11-.2-1.53-.59s-.64-.86-.64-1.41.21-1.02.64-1.42c.43-.39.94-.59,1.53-.59s1.11.2,1.53.59c.42.39.64.86.64,1.41s-.21,1.02-.64,1.42c-.42.39-.94.59-1.53.59ZM197.93,116.01v-14.27h4.02v14.27h-4.02Z"/>
        <path class="cls-6" d="M211.7,116.29c-1.47,0-2.73-.31-3.8-.92-1.07-.62-1.89-1.48-2.47-2.58-.58-1.11-.87-2.39-.87-3.85s.29-2.76.87-3.87c.58-1.11,1.4-1.97,2.47-2.58,1.07-.62,2.33-.92,3.8-.92s2.73.31,3.8.92c1.07.62,1.89,1.48,2.47,2.58.58,1.11.87,2.4.87,3.87s-.29,2.75-.87,3.85c-.58,1.11-1.4,1.97-2.47,2.58-1.07.62-2.33.92-3.8.92ZM211.72,113.22c.67,0,1.22-.19,1.67-.56.45-.37.78-.89,1.01-1.54s.34-1.39.34-2.22-.11-1.57-.34-2.22-.57-1.16-1.01-1.54c-.45-.38-1-.57-1.67-.57s-1.24.19-1.69.57c-.46.38-.8.89-1.03,1.54s-.34,1.39-.34,2.22.11,1.57.34,2.22.57,1.16,1.03,1.54c.46.38,1.02.56,1.69.56Z"/>
        <path class="cls-6" d="M225.47,107.76v8.25h-4.02v-14.27h3.83v2.52h.17c.32-.83.86-1.49,1.61-1.97.75-.49,1.67-.73,2.74-.73,1.01,0,1.88.22,2.63.65.75.43,1.33,1.05,1.74,1.85.42.8.62,1.76.62,2.87v9.09h-4.02v-8.38c0-.87-.22-1.56-.68-2.05-.46-.49-1.09-.74-1.9-.74-.54,0-1.02.11-1.43.34-.41.23-.73.56-.96,1s-.35.96-.35,1.57Z"/>
        <path class="cls-6" d="M242.1,116.28c-.92,0-1.75-.16-2.47-.48-.72-.32-1.29-.79-1.71-1.42-.42-.63-.63-1.41-.63-2.36,0-.79.15-1.46.44-2,.3-.54.7-.97,1.21-1.3.51-.33,1.09-.58,1.74-.74.65-.17,1.33-.28,2.05-.35.84-.09,1.52-.17,2.04-.25.52-.08.89-.19,1.12-.35.23-.15.35-.38.35-.69v-.06c0-.59-.19-1.04-.56-1.37-.37-.32-.9-.48-1.59-.48-.72,0-1.3.16-1.73.47-.43.31-.71.7-.85,1.18l-3.72-.3c.19-.87.56-1.62,1.11-2.25s1.27-1.12,2.15-1.47,1.89-.52,3.05-.52c.8,0,1.58.09,2.32.28.74.19,1.4.47,1.97.86.58.39,1.03.89,1.36,1.5.33.61.5,1.34.5,2.19v9.63h-3.81v-1.98h-.11c-.23.45-.54.84-.93,1.18-.39.34-.86.6-1.41.79-.55.19-1.18.28-1.9.28ZM243.25,113.55c.59,0,1.11-.12,1.57-.35s.81-.55,1.07-.94.39-.85.39-1.35v-1.51c-.13.08-.3.15-.51.22-.22.06-.46.12-.73.18-.27.05-.54.1-.81.14-.27.04-.52.08-.74.11-.47.07-.88.18-1.24.33s-.63.35-.82.6c-.2.25-.29.56-.29.93,0,.54.2.95.6,1.23s.91.42,1.52.42Z"/>
        <path class="cls-6" d="M253.38,116.01v-14.27h3.9v2.49h.15c.26-.89.71-1.56,1.33-2.01.62-.46,1.34-.68,2.15-.68.2,0,.42.01.65.04.23.02.44.06.61.1v3.51c-.19-.06-.45-.1-.78-.15-.33-.04-.64-.06-.91-.06-.59,0-1.12.13-1.58.38-.46.25-.83.6-1.09,1.05s-.4.96-.4,1.54v8.07h-4.02Z"/>
        <path class="cls-6" d="M268.25,96.98v19.03h-4.02v-19.03h4.02Z"/>
        <path class="cls-6" d="M278,116.29c-1.47,0-2.73-.31-3.8-.92-1.07-.62-1.89-1.48-2.47-2.58-.58-1.11-.87-2.39-.87-3.85s.29-2.76.87-3.87c.58-1.11,1.4-1.97,2.47-2.58,1.07-.62,2.33-.92,3.8-.92s2.73.31,3.8.92c1.07.62,1.89,1.48,2.47,2.58.58,1.11.87,2.4.87,3.87s-.29,2.75-.87,3.85c-.58,1.11-1.4,1.97-2.47,2.58-1.07.62-2.33.92-3.8.92ZM278.02,113.22c.67,0,1.22-.19,1.67-.56.45-.37.78-.89,1.01-1.54s.34-1.39.34-2.22-.11-1.57-.34-2.22-.57-1.16-1.01-1.54c-.45-.38-1-.57-1.67-.57s-1.24.19-1.69.57c-.46.38-.8.89-1.03,1.54s-.34,1.39-.34,2.22.11,1.57.34,2.22.57,1.16,1.03,1.54c.46.38,1.02.56,1.69.56Z"/>
        <path class="cls-6" d="M293.91,116.01v-14.27h3.9v2.49h.15c.26-.89.71-1.56,1.33-2.01.62-.46,1.34-.68,2.15-.68.2,0,.42.01.65.04.23.02.44.06.61.1v3.51c-.19-.06-.45-.1-.78-.15-.33-.04-.64-.06-.91-.06-.59,0-1.12.13-1.58.38-.46.25-.83.6-1.09,1.05s-.4.96-.4,1.54v8.07h-4.02Z"/>
        <path class="cls-6" d="M308.49,116.28c-.92,0-1.75-.16-2.47-.48-.72-.32-1.29-.79-1.71-1.42-.42-.63-.63-1.41-.63-2.36,0-.79.15-1.46.44-2,.3-.54.7-.97,1.21-1.3.51-.33,1.09-.58,1.74-.74.65-.17,1.33-.28,2.05-.35.84-.09,1.52-.17,2.04-.25.52-.08.89-.19,1.12-.35.23-.15.35-.38.35-.69v-.06c0-.59-.19-1.04-.56-1.37-.37-.32-.9-.48-1.59-.48-.72,0-1.3.16-1.73.47-.43.31-.71.7-.85,1.18l-3.72-.3c.19-.87.56-1.62,1.11-2.25s1.27-1.12,2.15-1.47,1.89-.52,3.05-.52c.8,0,1.58.09,2.32.28.74.19,1.4.47,1.97.86.58.39,1.03.89,1.36,1.5.33.61.5,1.34.5,2.19v9.63h-3.81v-1.98h-.11c-.23.45-.54.84-.93,1.18-.39.34-.86.6-1.41.79-.55.19-1.18.28-1.9.28ZM309.64,113.55c.59,0,1.11-.12,1.57-.35s.81-.55,1.07-.94.39-.85.39-1.35v-1.51c-.13.08-.3.15-.51.22-.22.06-.46.12-.73.18-.27.05-.54.1-.81.14-.27.04-.52.08-.74.11-.47.07-.88.18-1.24.33s-.63.35-.82.6c-.2.25-.29.56-.29.93,0,.54.2.95.6,1.23s.91.42,1.52.42ZM309.21,99.9l2-4.23h3.72l-2.88,4.23h-2.84Z"/>
        <path class="cls-6" d="M319.77,121.36v-19.62h3.96v2.4h.18c.18-.38.43-.78.77-1.18.34-.4.78-.73,1.32-1,.54-.27,1.22-.4,2.03-.4,1.06,0,2.03.27,2.92.81.89.54,1.61,1.36,2.14,2.44.53,1.09.8,2.45.8,4.08s-.26,2.93-.78,4.03-1.22,1.92-2.11,2.48c-.89.56-1.88.84-2.98.84-.78,0-1.44-.13-1.99-.38s-.99-.57-1.33-.96c-.35-.39-.61-.78-.79-1.18h-.12v7.64h-4.02ZM323.7,108.88c0,.85.12,1.59.36,2.22.24.63.58,1.12,1.04,1.47.45.35,1,.52,1.65.52s1.21-.18,1.66-.53c.45-.36.8-.85,1.03-1.49.24-.63.35-1.37.35-2.2s-.12-1.55-.35-2.17-.58-1.11-1.03-1.47-1.01-.53-1.67-.53-1.21.17-1.65.51c-.45.34-.79.82-1.03,1.45-.24.63-.36,1.36-.36,2.21Z"/>
        <path class="cls-6" d="M338.58,99.9c-.6,0-1.11-.2-1.53-.59s-.64-.86-.64-1.41.21-1.02.64-1.42c.43-.39.94-.59,1.53-.59s1.11.2,1.53.59c.42.39.64.86.64,1.41s-.21,1.02-.64,1.42c-.42.39-.94.59-1.53.59ZM336.56,116.01v-14.27h4.02v14.27h-4.02Z"/>
        <path class="cls-6" d="M349.12,116.24c-1.1,0-2.1-.28-2.98-.84s-1.59-1.39-2.11-2.48-.78-2.44-.78-4.03.27-3,.8-4.08c.53-1.09,1.25-1.9,2.14-2.44.89-.54,1.87-.81,2.93-.81.81,0,1.49.13,2.03.4.54.27.98.6,1.32,1s.59.79.77,1.18h.12v-7.15h4.01v19.03h-3.96v-2.29h-.17c-.19.4-.45.79-.8,1.18-.34.39-.79.71-1.33.96s-1.21.38-1.99.38ZM350.4,113.09c.65,0,1.2-.17,1.65-.52.45-.35.8-.84,1.04-1.47.24-.63.36-1.37.36-2.22s-.12-1.59-.36-2.21c-.24-.63-.58-1.11-1.04-1.45-.45-.34-1-.51-1.65-.51s-1.22.18-1.67.53-.8.84-1.03,1.47c-.23.63-.35,1.35-.35,2.17s.12,1.56.35,2.2.58,1.13,1.03,1.49c.45.36,1,.53,1.66.53Z"/>
        <path class="cls-6" d="M367.2,116.29c-1.47,0-2.73-.31-3.8-.92-1.07-.62-1.89-1.48-2.47-2.58-.58-1.11-.87-2.39-.87-3.85s.29-2.76.87-3.87c.58-1.11,1.4-1.97,2.47-2.58,1.07-.62,2.33-.92,3.8-.92s2.73.31,3.8.92c1.07.62,1.89,1.48,2.47,2.58.58,1.11.87,2.4.87,3.87s-.29,2.75-.87,3.85c-.58,1.11-1.4,1.97-2.47,2.58-1.07.62-2.33.92-3.8.92ZM367.22,113.22c.67,0,1.22-.19,1.67-.56.45-.37.78-.89,1.01-1.54s.34-1.39.34-2.22-.11-1.57-.34-2.22-.57-1.16-1.01-1.54c-.45-.38-1-.57-1.67-.57s-1.24.19-1.69.57c-.46.38-.8.89-1.03,1.54s-.34,1.39-.34,2.22.11,1.57.34,2.22.57,1.16,1.03,1.54c.46.38,1.02.56,1.69.56Z"/>
        <path class="cls-6" d="M381.32,113.41l-.1,1.02c-.08.82-.24,1.63-.47,2.45-.23.81-.47,1.55-.72,2.22-.25.66-.45,1.18-.6,1.56h-2.6c.09-.37.22-.88.39-1.53.16-.65.32-1.39.46-2.2.14-.81.24-1.64.27-2.48l.05-1.04h3.32Z"/>
        <path class="cls-6" d="M398.53,107.64v.32c0,1.08-.1,1.94-.29,2.59-.19.65-.48,1.17-.84,1.56-.37.39-.82.75-1.34,1.08-.38.24-.73.5-1.04.77-.31.27-.56.57-.74.89-.18.32-.27.69-.27,1.1s.1.8.31,1.12c.21.32.49.57.83.74.35.18.73.26,1.16.26s.79-.09,1.16-.26c.36-.18.66-.44.9-.79.23-.35.36-.77.38-1.28h3.85c-.03,1.24-.33,2.26-.9,3.08s-1.33,1.42-2.27,1.82c-.94.4-1.98.6-3.13.6-1.24,0-2.35-.2-3.31-.61s-1.72-.99-2.27-1.76c-.55-.77-.82-1.7-.82-2.79,0-.72.12-1.37.36-1.93.24-.56.58-1.06,1.02-1.49.44-.43.95-.82,1.53-1.16.5-.3.9-.6,1.22-.92.32-.31.55-.68.71-1.1s.23-.93.24-1.53v-.32h3.58ZM396.66,101.69c.63,0,1.17.22,1.61.65s.66.96.65,1.58c.01.61-.2,1.13-.65,1.56-.45.43-.98.65-1.61.65s-1.12-.22-1.57-.65c-.45-.43-.68-.95-.69-1.56,0-.42.11-.79.33-1.12.21-.33.49-.6.83-.8.34-.2.71-.3,1.11-.3Z"/>
        <path class="cls-6" d="M409.21,107.76v8.25h-4.02v-14.27h3.83v2.52h.17c.32-.83.86-1.49,1.61-1.97.75-.49,1.67-.73,2.74-.73,1.01,0,1.88.22,2.63.65.75.43,1.33,1.05,1.75,1.85.42.8.62,1.76.62,2.87v9.09h-4.02v-8.38c0-.87-.22-1.56-.68-2.05-.46-.49-1.09-.74-1.9-.74-.54,0-1.02.11-1.43.34-.41.23-.73.56-.96,1s-.35.96-.35,1.57Z"/>
        <path class="cls-6" d="M428.25,116.29c-1.46,0-2.73-.31-3.8-.92-1.07-.62-1.89-1.48-2.47-2.58-.58-1.11-.87-2.39-.87-3.85s.29-2.76.87-3.87c.58-1.11,1.4-1.97,2.47-2.58s2.33-.92,3.8-.92,2.73.31,3.8.92,1.89,1.48,2.47,2.58c.58,1.11.87,2.4.87,3.87s-.29,2.75-.87,3.85c-.58,1.11-1.4,1.97-2.47,2.58-1.07.62-2.33.92-3.8.92ZM428.27,113.22c.67,0,1.22-.19,1.67-.56.45-.37.78-.89,1.01-1.54s.34-1.39.34-2.22-.11-1.57-.34-2.22-.57-1.16-1.01-1.54c-.45-.38-1-.57-1.67-.57s-1.24.19-1.69.57c-.46.38-.8.89-1.03,1.54s-.34,1.39-.34,2.22.11,1.57.34,2.22.57,1.16,1.03,1.54c.46.38,1.02.56,1.69.56Z"/>
        <path class="cls-6" d="M450.05,105.81l-3.68.22c-.06-.31-.2-.59-.41-.84-.21-.25-.48-.45-.82-.6-.34-.15-.74-.23-1.2-.23-.62,0-1.15.13-1.58.39-.43.26-.64.6-.64,1.03,0,.34.14.63.42.86.28.24.75.42,1.42.57l2.62.52c1.41.29,2.46.74,3.15,1.38.69.63,1.04,1.46,1.04,2.49,0,.94-.28,1.76-.84,2.46s-1.32,1.26-2.28,1.65c-.97.39-2.08.59-3.33.59-1.92,0-3.44-.4-4.58-1.18-1.13-.79-1.8-1.87-1.99-3.23l3.95-.2c.12.58.41,1.01.87,1.31.46.3,1.05.45,1.76.45s1.27-.13,1.7-.4c.43-.27.65-.62.66-1.05,0-.36-.16-.66-.46-.89-.3-.23-.77-.41-1.4-.53l-2.51-.49c-1.42-.28-2.47-.76-3.16-1.45s-1.03-1.56-1.03-2.63c0-.92.25-1.71.76-2.37s1.22-1.17,2.14-1.53c.92-.36,2-.54,3.24-.54,1.83,0,3.27.38,4.32,1.14,1.05.76,1.67,1.8,1.84,3.11Z"/>
        <path class="cls-6" d="M69.68,147.69c-1.48,0-2.76-.31-3.82-.93-1.07-.62-1.88-1.49-2.45-2.6-.57-1.11-.85-2.38-.85-3.83s.29-2.75.86-3.85c.58-1.11,1.39-1.97,2.46-2.59,1.06-.62,2.33-.93,3.79-.93,1.26,0,2.37.23,3.32.68.95.45,1.7,1.09,2.25,1.9.55.82.86,1.78.91,2.88h-3.79c-.11-.71-.39-1.29-.84-1.72-.46-.44-1.05-.65-1.79-.65-.62,0-1.16.17-1.63.5-.46.33-.82.81-1.08,1.44s-.39,1.4-.39,2.29.13,1.68.38,2.32c.25.64.61,1.12,1.08,1.46s1.01.5,1.63.5c.46,0,.87-.09,1.24-.28.37-.19.67-.46.92-.81.24-.36.4-.79.48-1.29h3.79c-.06,1.09-.36,2.05-.9,2.88-.54.83-1.28,1.47-2.22,1.94-.94.46-2.06.7-3.35.7Z"/>
        <path class="cls-6" d="M85.28,147.69c-1.47,0-2.73-.31-3.8-.92-1.07-.62-1.89-1.48-2.47-2.58-.58-1.11-.87-2.39-.87-3.85s.29-2.76.87-3.87c.58-1.11,1.4-1.97,2.47-2.58,1.07-.62,2.33-.92,3.8-.92s2.73.31,3.8.92c1.07.62,1.89,1.48,2.47,2.58.58,1.11.87,2.4.87,3.87s-.29,2.75-.87,3.85c-.58,1.11-1.4,1.97-2.47,2.58-1.07.62-2.33.92-3.8.92ZM85.3,144.62c.67,0,1.22-.19,1.67-.56.45-.37.78-.89,1.01-1.54s.34-1.39.34-2.22-.11-1.57-.34-2.22-.57-1.16-1.01-1.54c-.45-.38-1-.57-1.67-.57s-1.24.19-1.69.57c-.46.38-.8.89-1.03,1.54s-.34,1.39-.34,2.22.11,1.57.34,2.22.57,1.16,1.03,1.54c.46.38,1.02.56,1.69.56Z"/>
        <path class="cls-6" d="M95.03,147.41v-14.27h3.83v2.52h.17c.3-.84.8-1.5,1.51-1.98.7-.48,1.55-.72,2.53-.72s1.84.24,2.54.73c.7.49,1.16,1.14,1.4,1.97h.15c.3-.82.83-1.47,1.61-1.97.78-.49,1.7-.74,2.76-.74,1.35,0,2.45.42,3.3,1.27s1.27,2.04,1.27,3.59v9.6h-4.01v-8.82c0-.79-.21-1.39-.64-1.78-.43-.4-.96-.59-1.6-.59-.73,0-1.3.23-1.71.68s-.61,1.05-.61,1.8v8.71h-3.9v-8.9c0-.7-.2-1.26-.61-1.67-.41-.42-.94-.62-1.6-.62-.45,0-.85.11-1.2.33-.35.22-.64.53-.84.92-.21.39-.31.85-.31,1.38v8.57h-4.02Z"/>
        <path class="cls-6" d="M119.25,152.76v-19.62h3.96v2.4h.18c.18-.38.43-.78.77-1.18.34-.4.78-.73,1.32-1,.54-.27,1.22-.4,2.03-.4,1.06,0,2.03.27,2.92.81.89.54,1.61,1.36,2.14,2.44.53,1.09.8,2.45.8,4.08s-.26,2.93-.78,4.03-1.22,1.92-2.11,2.48c-.89.56-1.88.84-2.98.84-.78,0-1.44-.13-1.99-.38s-.99-.57-1.33-.96c-.35-.39-.61-.78-.79-1.18h-.12v7.64h-4.02ZM123.19,140.27c0,.85.12,1.59.36,2.22.24.63.58,1.12,1.04,1.47.45.35,1,.52,1.65.52s1.21-.18,1.66-.53c.45-.36.8-.85,1.03-1.49.24-.63.35-1.37.35-2.2s-.12-1.55-.35-2.17-.58-1.11-1.03-1.47-1.01-.53-1.67-.53-1.21.17-1.65.51c-.45.34-.79.82-1.03,1.45-.24.63-.36,1.36-.36,2.21Z"/>
        <path class="cls-6" d="M140.18,147.68c-.92,0-1.75-.16-2.47-.48-.72-.32-1.29-.79-1.71-1.42-.42-.63-.63-1.41-.63-2.36,0-.79.15-1.46.44-2,.3-.54.7-.97,1.21-1.3.51-.33,1.09-.58,1.74-.74.65-.17,1.33-.28,2.05-.35.84-.09,1.52-.17,2.04-.25.52-.08.89-.19,1.12-.35.23-.15.35-.38.35-.69v-.06c0-.59-.19-1.04-.56-1.37-.37-.32-.9-.48-1.59-.48-.72,0-1.3.16-1.73.47-.43.31-.71.7-.85,1.18l-3.72-.3c.19-.87.56-1.62,1.11-2.25s1.27-1.12,2.15-1.47,1.89-.52,3.05-.52c.8,0,1.58.09,2.32.28.74.19,1.4.47,1.97.86.58.39,1.03.89,1.36,1.5.33.61.5,1.34.5,2.19v9.63h-3.81v-1.98h-.11c-.23.45-.54.84-.93,1.18-.39.34-.86.6-1.41.79-.55.19-1.18.28-1.9.28ZM141.33,144.95c.59,0,1.11-.12,1.57-.35s.81-.55,1.07-.94.39-.85.39-1.35v-1.51c-.13.08-.3.15-.51.22-.22.06-.46.12-.73.18-.27.05-.54.1-.81.14-.27.04-.52.08-.74.11-.47.07-.88.18-1.24.33s-.63.35-.82.6c-.2.25-.29.56-.29.93,0,.54.2.95.6,1.23s.91.42,1.52.42Z"/>
        <path class="cls-6" d="M151.46,147.41v-14.27h3.9v2.49h.15c.26-.89.71-1.56,1.33-2.01.62-.46,1.34-.68,2.15-.68.2,0,.42.01.65.04.23.02.44.06.61.1v3.51c-.19-.06-.45-.1-.78-.15-.33-.04-.64-.06-.91-.06-.59,0-1.12.13-1.58.38-.46.25-.83.6-1.09,1.05s-.4.96-.4,1.54v8.07h-4.02Z"/>
        <path class="cls-6" d="M170.74,133.14v2.97h-8.72v-2.97h8.72ZM164,129.72h4.02v13.3c0,.37.06.65.17.85s.27.34.48.42c.2.08.44.12.71.12.19,0,.38-.02.57-.05.19-.03.33-.06.43-.08l.63,2.94c-.2.06-.48.13-.85.22-.36.08-.81.13-1.33.15-.97.04-1.82-.09-2.54-.38-.73-.29-1.29-.74-1.69-1.36-.4-.61-.6-1.39-.59-2.32v-13.82Z"/>
        <path class="cls-6" d="M179.81,147.69c-1.49,0-2.77-.3-3.84-.9-1.07-.6-1.9-1.45-2.48-2.55-.58-1.1-.87-2.4-.87-3.91s.29-2.76.87-3.87c.58-1.11,1.39-1.97,2.45-2.59,1.05-.62,2.29-.93,3.71-.93.96,0,1.85.15,2.67.45.83.3,1.55.75,2.17,1.35.62.6,1.1,1.35,1.45,2.26.35.91.52,1.97.52,3.18v1.09h-12.23v-2.45h8.45c0-.57-.13-1.07-.38-1.51-.25-.44-.6-.79-1.04-1.04-.44-.25-.96-.38-1.54-.38s-1.15.14-1.62.41c-.47.28-.83.64-1.1,1.11-.26.46-.4.97-.41,1.54v2.33c0,.71.13,1.32.4,1.83s.65.91,1.14,1.19c.49.28,1.07.42,1.74.42.45,0,.85-.06,1.23-.19.37-.12.69-.31.95-.56.26-.25.47-.55.6-.91l3.72.24c-.19.88-.57,1.65-1.16,2.3-.58.65-1.33,1.16-2.24,1.52-.92.36-1.97.54-3.16.54Z"/>
        <path class="cls-6" d="M201.13,137.21l-3.68.22c-.06-.31-.2-.59-.41-.84s-.48-.45-.82-.6c-.34-.15-.74-.23-1.2-.23-.62,0-1.15.13-1.58.39-.43.26-.64.6-.64,1.03,0,.34.14.63.42.86.28.24.75.42,1.42.57l2.62.52c1.41.29,2.46.74,3.15,1.38.69.63,1.04,1.46,1.04,2.49,0,.94-.28,1.76-.83,2.46-.56.71-1.32,1.26-2.28,1.65-.97.39-2.08.59-3.33.59-1.92,0-3.44-.4-4.58-1.18-1.13-.79-1.8-1.87-1.99-3.23l3.95-.2c.12.58.41,1.01.87,1.31.46.3,1.05.45,1.76.45s1.27-.13,1.7-.4c.43-.27.65-.62.66-1.05,0-.36-.16-.66-.46-.89-.3-.23-.77-.41-1.4-.53l-2.51-.49c-1.42-.28-2.47-.76-3.15-1.45s-1.03-1.56-1.03-2.63c0-.92.25-1.71.76-2.37.51-.66,1.22-1.17,2.14-1.53.92-.36,2-.54,3.24-.54,1.83,0,3.27.38,4.32,1.14,1.05.76,1.67,1.8,1.84,3.11Z"/>
        <path class="cls-6" d="M217.86,133.14v2.97h-8.72v-2.97h8.72ZM211.12,129.72h4.02v13.3c0,.37.06.65.17.85s.27.34.48.42c.2.08.44.12.71.12.19,0,.38-.02.57-.05.19-.03.33-.06.43-.08l.63,2.94c-.2.06-.48.13-.85.22-.36.08-.81.13-1.33.15-.97.04-1.82-.09-2.54-.38-.73-.29-1.29-.74-1.69-1.36-.4-.61-.6-1.39-.59-2.32v-13.82Z"/>
        <path class="cls-6" d="M229.76,141.33v-8.19h4.02v14.27h-3.86v-2.59h-.15c-.33.84-.87,1.51-1.63,2.02-.76.51-1.68.76-2.77.76-.97,0-1.82-.22-2.56-.65-.74-.43-1.31-1.05-1.72-1.85-.41-.8-.62-1.76-.63-2.87v-9.09h4.02v8.38c0,.84.24,1.51.69,2,.45.49,1.06.73,1.82.73.48,0,.94-.11,1.36-.33.42-.22.76-.55,1.02-.98s.39-.97.38-1.61Z"/>
        <path class="cls-6" d="M247.16,139.16v8.25h-4.02v-14.27h3.83v2.52h.17c.32-.83.86-1.49,1.61-1.97.75-.49,1.67-.73,2.74-.73,1.01,0,1.88.22,2.63.65.75.43,1.33,1.05,1.74,1.85.42.8.62,1.76.62,2.87v9.09h-4.02v-8.38c0-.87-.22-1.56-.68-2.05-.46-.49-1.09-.74-1.9-.74-.54,0-1.02.11-1.43.34-.41.23-.73.56-.96,1s-.35.96-.35,1.57Z"/>
        <path class="cls-6" d="M268.95,141.33v-8.19h4.02v14.27h-3.86v-2.59h-.15c-.33.84-.87,1.51-1.63,2.02-.76.51-1.68.76-2.77.76-.97,0-1.82-.22-2.56-.65-.74-.43-1.31-1.05-1.72-1.85-.41-.8-.62-1.76-.63-2.87v-9.09h4.02v8.38c0,.84.24,1.51.69,2,.45.49,1.06.73,1.82.73.48,0,.94-.11,1.36-.33.42-.22.76-.55,1.02-.98s.39-.97.38-1.61ZM264.88,131.3l2-4.23h3.72l-2.88,4.23h-2.84Z"/>
        <path class="cls-6" d="M276.17,147.41v-14.27h3.83v2.52h.17c.3-.84.8-1.5,1.51-1.98.7-.48,1.55-.72,2.53-.72s1.84.24,2.54.73c.7.49,1.16,1.14,1.4,1.97h.15c.3-.82.83-1.47,1.61-1.97.78-.49,1.7-.74,2.76-.74,1.35,0,2.45.42,3.3,1.27s1.27,2.04,1.27,3.59v9.6h-4.01v-8.82c0-.79-.21-1.39-.64-1.78-.43-.4-.96-.59-1.6-.59-.73,0-1.3.23-1.71.68s-.61,1.05-.61,1.8v8.71h-3.9v-8.9c0-.7-.2-1.26-.61-1.67-.41-.42-.94-.62-1.6-.62-.45,0-.85.11-1.2.33-.35.22-.64.53-.84.92-.21.39-.31.85-.31,1.38v8.57h-4.02Z"/>
        <path class="cls-6" d="M306.99,147.69c-1.49,0-2.77-.3-3.84-.9-1.07-.6-1.9-1.45-2.48-2.55-.58-1.1-.87-2.4-.87-3.91s.29-2.76.87-3.87c.58-1.11,1.39-1.97,2.45-2.59,1.05-.62,2.29-.93,3.71-.93.96,0,1.85.15,2.67.45.83.3,1.55.75,2.17,1.35.62.6,1.1,1.35,1.45,2.26.35.91.52,1.97.52,3.18v1.09h-12.23v-2.45h8.45c0-.57-.13-1.07-.38-1.51-.25-.44-.6-.79-1.04-1.04-.44-.25-.96-.38-1.54-.38s-1.15.14-1.62.41c-.47.28-.83.64-1.1,1.11-.26.46-.4.97-.41,1.54v2.33c0,.71.13,1.32.4,1.83s.65.91,1.14,1.19c.49.28,1.07.42,1.74.42.45,0,.85-.06,1.23-.19.37-.12.69-.31.95-.56.26-.25.47-.55.6-.91l3.72.24c-.19.88-.57,1.65-1.16,2.3-.58.65-1.33,1.16-2.24,1.52-.92.36-1.97.54-3.16.54Z"/>
        <path class="cls-6" d="M316.26,147.41v-14.27h3.9v2.49h.15c.26-.89.71-1.56,1.33-2.01.62-.46,1.34-.68,2.15-.68.2,0,.42.01.65.04.23.02.44.06.61.1v3.51c-.19-.06-.45-.1-.78-.15-.33-.04-.64-.06-.91-.06-.59,0-1.12.13-1.58.38-.46.25-.83.6-1.09,1.05s-.4.96-.4,1.54v8.07h-4.02Z"/>
        <path class="cls-6" d="M332.98,147.69c-1.47,0-2.73-.31-3.8-.92-1.07-.62-1.89-1.48-2.47-2.58-.58-1.11-.87-2.39-.87-3.85s.29-2.76.87-3.87c.58-1.11,1.4-1.97,2.47-2.58,1.07-.62,2.33-.92,3.8-.92s2.73.31,3.8.92c1.07.62,1.89,1.48,2.47,2.58.58,1.11.87,2.4.87,3.87s-.29,2.75-.87,3.85c-.58,1.11-1.4,1.97-2.47,2.58-1.07.62-2.33.92-3.8.92ZM333,144.62c.67,0,1.22-.19,1.67-.56.45-.37.78-.89,1.01-1.54s.34-1.39.34-2.22-.11-1.57-.34-2.22-.57-1.16-1.01-1.54c-.45-.38-1-.57-1.67-.57s-1.24.19-1.69.57c-.46.38-.8.89-1.03,1.54s-.34,1.39-.34,2.22.11,1.57.34,2.22.57,1.16,1.03,1.54c.46.38,1.02.56,1.69.56Z"/>
        <path class="cls-6" d="M354.23,147.64c-1.1,0-2.1-.28-2.98-.84s-1.59-1.39-2.11-2.48-.78-2.44-.78-4.03.27-3,.8-4.08c.53-1.09,1.25-1.9,2.14-2.44.89-.54,1.87-.81,2.93-.81.81,0,1.49.13,2.03.4.54.27.98.6,1.32,1s.59.79.77,1.18h.12v-7.15h4.01v19.03h-3.96v-2.29h-.17c-.19.4-.45.79-.8,1.18-.34.39-.79.71-1.33.96s-1.21.38-1.99.38ZM355.5,144.49c.65,0,1.2-.17,1.65-.52.45-.35.8-.84,1.04-1.47.24-.63.36-1.37.36-2.22s-.12-1.59-.36-2.21c-.24-.63-.58-1.11-1.04-1.45-.45-.34-1-.51-1.65-.51s-1.22.18-1.67.53-.8.84-1.03,1.47c-.23.63-.35,1.35-.35,2.17s.12,1.56.35,2.2.58,1.13,1.03,1.49c.45.36,1,.53,1.66.53Z"/>
        <path class="cls-6" d="M372.37,147.69c-1.49,0-2.77-.3-3.84-.9-1.07-.6-1.9-1.45-2.48-2.55-.58-1.1-.87-2.4-.87-3.91s.29-2.76.87-3.87c.58-1.11,1.39-1.97,2.45-2.59,1.05-.62,2.29-.93,3.71-.93.96,0,1.85.15,2.67.45.83.3,1.55.75,2.17,1.35.62.6,1.1,1.35,1.45,2.26.35.91.52,1.97.52,3.18v1.09h-12.23v-2.45h8.45c0-.57-.13-1.07-.38-1.51-.25-.44-.6-.79-1.04-1.04-.44-.25-.96-.38-1.54-.38s-1.15.14-1.62.41c-.47.28-.83.64-1.1,1.11-.26.46-.4.97-.41,1.54v2.33c0,.71.13,1.32.4,1.83s.65.91,1.14,1.19c.49.28,1.07.42,1.74.42.45,0,.85-.06,1.23-.19.37-.12.69-.31.95-.56.26-.25.47-.55.6-.91l3.72.24c-.19.88-.57,1.65-1.16,2.3-.58.65-1.33,1.16-2.24,1.52-.92.36-1.97.54-3.16.54Z"/>
        <path class="cls-6" d="M387.79,152.76v-19.62h3.96v2.4h.18c.18-.38.43-.78.77-1.18s.78-.73,1.32-1,1.22-.4,2.03-.4c1.06,0,2.03.27,2.92.81.89.54,1.61,1.36,2.14,2.44s.8,2.45.8,4.08-.26,2.93-.78,4.03-1.22,1.92-2.11,2.48-1.88.84-2.98.84c-.78,0-1.44-.13-1.99-.38s-.99-.57-1.33-.96c-.35-.39-.61-.78-.79-1.18h-.12v7.64h-4.02ZM391.73,140.27c0,.85.12,1.59.36,2.22.24.63.58,1.12,1.04,1.47.45.35,1,.52,1.65.52s1.21-.18,1.66-.53c.45-.36.8-.85,1.03-1.49s.35-1.37.35-2.2-.12-1.55-.35-2.17-.58-1.11-1.03-1.47c-.45-.35-1.01-.53-1.67-.53s-1.21.17-1.66.51c-.45.34-.79.82-1.03,1.45-.24.63-.36,1.36-.36,2.21Z"/>
        <path class="cls-6" d="M411.19,147.69c-1.49,0-2.77-.3-3.84-.9-1.07-.6-1.9-1.45-2.48-2.55-.58-1.1-.87-2.4-.87-3.91s.29-2.76.87-3.87c.58-1.11,1.39-1.97,2.45-2.59,1.05-.62,2.29-.93,3.71-.93.96,0,1.85.15,2.67.45.83.3,1.55.75,2.17,1.35.62.6,1.1,1.35,1.45,2.26.35.91.52,1.97.52,3.18v1.09h-12.23v-2.45h8.45c0-.57-.13-1.07-.38-1.51-.25-.44-.6-.79-1.04-1.04-.44-.25-.96-.38-1.54-.38s-1.15.14-1.62.41c-.47.28-.83.64-1.1,1.11-.26.46-.4.97-.41,1.54v2.33c0,.71.13,1.32.4,1.83.27.51.65.91,1.14,1.19s1.07.42,1.75.42c.45,0,.85-.06,1.23-.19.37-.12.69-.31.95-.56.26-.25.47-.55.6-.91l3.72.24c-.19.88-.57,1.65-1.16,2.3-.58.65-1.33,1.16-2.24,1.52s-1.97.54-3.16.54Z"/>
        <path class="cls-6" d="M425.8,147.64c-1.1,0-2.1-.28-2.99-.84s-1.59-1.39-2.11-2.48-.78-2.44-.78-4.03.27-3,.8-4.08c.54-1.09,1.25-1.9,2.14-2.44.89-.54,1.87-.81,2.93-.81.81,0,1.49.13,2.03.4.54.27.98.6,1.32,1,.34.4.59.79.77,1.18h.12v-7.15h4.01v19.03h-3.96v-2.29h-.17c-.19.4-.46.79-.8,1.18-.34.39-.79.71-1.33.96s-1.21.38-1.99.38ZM427.07,144.49c.65,0,1.2-.17,1.65-.52.45-.35.79-.84,1.04-1.47s.36-1.37.36-2.22-.12-1.59-.36-2.21-.58-1.11-1.04-1.45c-.45-.34-1-.51-1.65-.51s-1.22.18-1.67.53c-.45.35-.79.84-1.03,1.47-.23.63-.35,1.35-.35,2.17s.12,1.56.35,2.2c.24.63.58,1.13,1.03,1.49.45.36,1,.53,1.67.53Z"/>
        <path class="cls-6" d="M439.35,131.3c-.6,0-1.11-.2-1.53-.59-.42-.39-.64-.86-.64-1.41s.21-1.02.64-1.42c.43-.39.94-.59,1.53-.59s1.11.2,1.53.59c.42.39.64.86.64,1.41s-.21,1.02-.64,1.42c-.42.39-.93.59-1.53.59ZM437.33,147.41v-14.27h4.02v14.27h-4.02Z"/>
        <path class="cls-6" d="M449.9,147.64c-1.1,0-2.1-.28-2.99-.84-.89-.56-1.59-1.39-2.11-2.48s-.78-2.44-.78-4.03.27-3,.8-4.08,1.25-1.9,2.14-2.44c.89-.54,1.87-.81,2.93-.81.81,0,1.49.13,2.03.4.54.27.98.6,1.32,1,.34.4.59.79.77,1.18h.12v-7.15h4.01v19.03h-3.96v-2.29h-.17c-.19.4-.46.79-.8,1.18-.34.39-.79.71-1.33.96s-1.21.38-1.98.38ZM451.17,144.49c.65,0,1.2-.17,1.65-.52.45-.35.79-.84,1.04-1.47s.36-1.37.36-2.22-.12-1.59-.36-2.21c-.24-.63-.59-1.11-1.04-1.45-.45-.34-1-.51-1.65-.51s-1.21.18-1.67.53-.79.84-1.03,1.47c-.23.63-.35,1.35-.35,2.17s.12,1.56.35,2.2.58,1.13,1.03,1.49c.45.36,1,.53,1.66.53Z"/>
        <path class="cls-6" d="M467.97,147.69c-1.46,0-2.73-.31-3.8-.92-1.07-.62-1.89-1.48-2.47-2.58-.58-1.11-.87-2.39-.87-3.85s.29-2.76.87-3.87c.58-1.11,1.4-1.97,2.47-2.58s2.33-.92,3.8-.92,2.73.31,3.8.92,1.89,1.48,2.47,2.58c.58,1.11.87,2.4.87,3.87s-.29,2.75-.87,3.85c-.58,1.11-1.4,1.97-2.47,2.58-1.07.62-2.33.92-3.8.92ZM467.99,144.62c.67,0,1.22-.19,1.67-.56.45-.37.78-.89,1.01-1.54s.34-1.39.34-2.22-.11-1.57-.34-2.22-.57-1.16-1.01-1.54c-.45-.38-1-.57-1.67-.57s-1.24.19-1.69.57c-.46.38-.8.89-1.03,1.54s-.34,1.39-.34,2.22.11,1.57.34,2.22.57,1.16,1.03,1.54c.46.38,1.02.56,1.69.56Z"/>
        <path class="cls-6" d="M65.62,184.16c-.51,0-.99-.04-1.43-.12-.44-.08-.81-.17-1.1-.29l.91-2.95c.47.14.9.22,1.28.23.38.01.71-.08.99-.26s.51-.5.68-.95l.24-.6-5.2-14.68h4.23l3,10.48h.15l3.03-10.48h4.25l-5.63,15.81c-.27.77-.64,1.44-1.1,2.01-.46.57-1.05,1.02-1.75,1.33-.7.31-1.55.47-2.55.47Z"/>
        <path class="cls-6" d="M94.15,172.73v-8.19h4.02v14.27h-3.86v-2.59h-.15c-.33.84-.87,1.51-1.63,2.02-.76.51-1.68.76-2.77.76-.97,0-1.82-.22-2.56-.65-.74-.43-1.31-1.05-1.72-1.85-.41-.8-.62-1.76-.63-2.87v-9.09h4.02v8.38c0,.84.24,1.51.69,2,.45.49,1.06.73,1.82.73.48,0,.94-.11,1.36-.33.42-.22.76-.55,1.02-.98s.39-.97.38-1.61Z"/>
        <path class="cls-6" d="M105.39,170.55v8.25h-4.02v-14.27h3.83v2.52h.17c.32-.83.86-1.49,1.61-1.97.75-.49,1.67-.73,2.74-.73,1.01,0,1.88.22,2.63.65.75.43,1.33,1.05,1.74,1.85.42.8.62,1.76.62,2.87v9.09h-4.02v-8.38c0-.87-.22-1.56-.68-2.05-.46-.49-1.09-.74-1.9-.74-.54,0-1.02.11-1.43.34-.41.23-.73.56-.96,1s-.35.96-.35,1.57Z"/>
        <path class="cls-6" d="M122.02,179.07c-.92,0-1.75-.16-2.47-.48-.72-.32-1.29-.79-1.71-1.42-.42-.63-.63-1.41-.63-2.36,0-.79.15-1.46.44-2,.3-.54.7-.97,1.21-1.3.51-.33,1.09-.58,1.74-.74.65-.17,1.33-.28,2.05-.35.84-.09,1.52-.17,2.04-.25.52-.08.89-.19,1.12-.35.23-.15.35-.38.35-.69v-.06c0-.59-.19-1.04-.56-1.37-.37-.32-.9-.48-1.59-.48-.72,0-1.3.16-1.73.47-.43.31-.71.7-.85,1.18l-3.72-.3c.19-.87.56-1.62,1.11-2.25s1.27-1.12,2.15-1.47,1.89-.52,3.05-.52c.8,0,1.58.09,2.32.28.74.19,1.4.47,1.97.86.58.39,1.03.89,1.36,1.5.33.61.5,1.34.5,2.19v9.63h-3.81v-1.98h-.11c-.23.45-.54.84-.93,1.18-.39.34-.86.6-1.41.79-.55.19-1.18.28-1.9.28ZM123.17,176.34c.59,0,1.11-.12,1.57-.35s.81-.55,1.07-.94.39-.85.39-1.35v-1.51c-.13.08-.3.15-.51.22-.22.06-.46.12-.73.18-.27.05-.54.1-.81.14-.27.04-.52.08-.74.11-.47.07-.88.18-1.24.33s-.63.35-.82.6c-.2.25-.29.56-.29.93,0,.54.2.95.6,1.23s.91.42,1.52.42Z"/>
        <path class="cls-6" d="M147.24,164.53v2.97h-8.94v-2.97h8.94ZM140.35,178.8v-15.3c0-1.03.21-1.89.62-2.57.41-.68.98-1.19,1.69-1.53.72-.34,1.53-.51,2.44-.51.62,0,1.18.05,1.69.14.51.09.89.18,1.15.25l-.72,2.97c-.16-.05-.35-.1-.58-.14s-.46-.06-.7-.06c-.59,0-1,.13-1.24.4-.23.27-.35.65-.35,1.13v15.23h-4.01Z"/>
        <path class="cls-6" d="M155.73,179.08c-1.47,0-2.73-.31-3.8-.92-1.07-.62-1.89-1.48-2.47-2.58-.58-1.11-.87-2.39-.87-3.85s.29-2.76.87-3.87c.58-1.11,1.4-1.97,2.47-2.58,1.07-.62,2.33-.92,3.8-.92s2.73.31,3.8.92c1.07.62,1.89,1.48,2.47,2.58.58,1.11.87,2.4.87,3.87s-.29,2.75-.87,3.85c-.58,1.11-1.4,1.97-2.47,2.58-1.07.62-2.33.92-3.8.92ZM155.75,176.02c.67,0,1.22-.19,1.67-.56.45-.37.78-.89,1.01-1.54s.34-1.39.34-2.22-.11-1.57-.34-2.22-.57-1.16-1.01-1.54c-.45-.38-1-.57-1.67-.57s-1.24.19-1.69.57c-.46.38-.8.89-1.03,1.54s-.34,1.39-.34,2.22.11,1.57.34,2.22.57,1.16,1.03,1.54c.46.38,1.02.56,1.69.56Z"/>
        <path class="cls-6" d="M173.19,164.53v2.97h-8.72v-2.97h8.72ZM166.44,161.11h4.02v13.3c0,.37.06.65.17.85s.27.34.48.42c.2.08.44.12.71.12.19,0,.38-.02.57-.05.19-.03.33-.06.43-.08l.63,2.94c-.2.06-.48.13-.85.22-.36.08-.81.13-1.33.15-.97.04-1.82-.09-2.54-.38-.73-.29-1.29-.74-1.69-1.36-.4-.61-.6-1.39-.59-2.32v-13.82Z"/>
        <path class="cls-6" d="M182.19,179.08c-1.47,0-2.73-.31-3.8-.92-1.07-.62-1.89-1.48-2.47-2.58-.58-1.11-.87-2.39-.87-3.85s.29-2.76.87-3.87c.58-1.11,1.4-1.97,2.47-2.58,1.07-.62,2.33-.92,3.8-.92s2.73.31,3.8.92c1.07.62,1.89,1.48,2.47,2.58.58,1.11.87,2.4.87,3.87s-.29,2.75-.87,3.85c-.58,1.11-1.4,1.97-2.47,2.58-1.07.62-2.33.92-3.8.92ZM182.21,176.02c.67,0,1.22-.19,1.67-.56.45-.37.78-.89,1.01-1.54s.34-1.39.34-2.22-.11-1.57-.34-2.22-.57-1.16-1.01-1.54c-.45-.38-1-.57-1.67-.57s-1.24.19-1.69.57c-.46.38-.8.89-1.03,1.54s-.34,1.39-.34,2.22.11,1.57.34,2.22.57,1.16,1.03,1.54c.46.38,1.02.56,1.69.56Z"/>
        <path class="cls-6" d="M203.44,179.04c-1.1,0-2.1-.28-2.98-.84s-1.59-1.39-2.11-2.48-.78-2.44-.78-4.03.27-3,.8-4.08c.53-1.09,1.25-1.9,2.14-2.44.89-.54,1.87-.81,2.93-.81.81,0,1.49.13,2.03.4.54.27.98.6,1.32,1s.59.79.77,1.18h.12v-7.15h4.01v19.03h-3.96v-2.29h-.17c-.19.4-.45.79-.8,1.18-.34.39-.79.71-1.33.96s-1.21.38-1.99.38ZM204.71,175.89c.65,0,1.2-.17,1.65-.52.45-.35.8-.84,1.04-1.47.24-.63.36-1.37.36-2.22s-.12-1.59-.36-2.21c-.24-.63-.58-1.11-1.04-1.45-.45-.34-1-.51-1.65-.51s-1.22.18-1.67.53-.8.84-1.03,1.47c-.23.63-.35,1.35-.35,2.17s.12,1.56.35,2.2.58,1.13,1.03,1.49c.45.36,1,.53,1.66.53Z"/>
        <path class="cls-6" d="M221.58,179.08c-1.49,0-2.77-.3-3.84-.9-1.07-.6-1.9-1.45-2.48-2.55-.58-1.1-.87-2.4-.87-3.91s.29-2.76.87-3.87c.58-1.11,1.39-1.97,2.45-2.59,1.05-.62,2.29-.93,3.71-.93.96,0,1.85.15,2.67.45.83.3,1.55.75,2.17,1.35.62.6,1.1,1.35,1.45,2.26.35.91.52,1.97.52,3.18v1.09h-12.23v-2.45h8.45c0-.57-.13-1.07-.38-1.51-.25-.44-.6-.79-1.04-1.04-.44-.25-.96-.38-1.54-.38s-1.15.14-1.62.41c-.47.28-.83.64-1.1,1.11-.26.46-.4.97-.41,1.54v2.33c0,.71.13,1.32.4,1.83s.65.91,1.14,1.19c.49.28,1.07.42,1.74.42.45,0,.85-.06,1.23-.19.37-.12.69-.31.95-.56.26-.25.47-.55.6-.91l3.72.24c-.19.88-.57,1.65-1.16,2.3-.58.65-1.33,1.16-2.24,1.52-.92.36-1.97.54-3.16.54Z"/>
        <path class="cls-6" d="M234.86,159.78v19.03h-4.02v-19.03h4.02Z"/>
        <path class="cls-6" d="M244.23,184.16v-19.62h3.96v2.4h.18c.18-.38.43-.78.77-1.18.34-.4.78-.73,1.32-1,.54-.27,1.22-.4,2.03-.4,1.06,0,2.03.27,2.92.81.89.54,1.61,1.36,2.14,2.44.53,1.09.8,2.45.8,4.08s-.26,2.93-.78,4.03-1.22,1.92-2.11,2.48c-.89.56-1.88.84-2.98.84-.78,0-1.44-.13-1.99-.38s-.99-.57-1.33-.96c-.35-.39-.61-.78-.79-1.18h-.12v7.64h-4.02ZM248.16,171.67c0,.85.12,1.59.36,2.22.24.63.58,1.12,1.04,1.47.45.35,1,.52,1.65.52s1.21-.18,1.66-.53c.45-.36.8-.85,1.03-1.49.24-.63.35-1.37.35-2.2s-.12-1.55-.35-2.17-.58-1.11-1.03-1.47-1.01-.53-1.67-.53-1.21.17-1.65.51c-.45.34-.79.82-1.03,1.45-.24.63-.36,1.36-.36,2.21Z"/>
        <path class="cls-6" d="M265.16,179.07c-.92,0-1.75-.16-2.47-.48-.72-.32-1.29-.79-1.71-1.42-.42-.63-.63-1.41-.63-2.36,0-.79.15-1.46.44-2,.3-.54.7-.97,1.21-1.3.51-.33,1.09-.58,1.74-.74.65-.17,1.33-.28,2.05-.35.84-.09,1.52-.17,2.04-.25.52-.08.89-.19,1.12-.35.23-.15.35-.38.35-.69v-.06c0-.59-.19-1.04-.56-1.37-.37-.32-.9-.48-1.59-.48-.72,0-1.3.16-1.73.47-.43.31-.71.7-.85,1.18l-3.72-.3c.19-.87.56-1.62,1.11-2.25s1.27-1.12,2.15-1.47,1.89-.52,3.05-.52c.8,0,1.58.09,2.32.28.74.19,1.4.47,1.97.86.58.39,1.03.89,1.36,1.5.33.61.5,1.34.5,2.19v9.63h-3.81v-1.98h-.11c-.23.45-.54.84-.93,1.18-.39.34-.86.6-1.41.79-.55.19-1.18.28-1.9.28ZM266.31,176.34c.59,0,1.11-.12,1.57-.35s.81-.55,1.07-.94.39-.85.39-1.35v-1.51c-.13.08-.3.15-.51.22-.22.06-.46.12-.73.18-.27.05-.54.1-.81.14-.27.04-.52.08-.74.11-.47.07-.88.18-1.24.33s-.63.35-.82.6c-.2.25-.29.56-.29.93,0,.54.2.95.6,1.23s.91.42,1.52.42Z"/>
        <path class="cls-6" d="M286.01,184.16v-7.64h-.12c-.19.4-.45.79-.8,1.18-.34.39-.79.71-1.33.96s-1.21.38-1.99.38c-1.1,0-2.1-.28-2.98-.84s-1.59-1.39-2.11-2.48-.78-2.44-.78-4.03.27-3,.8-4.08c.53-1.09,1.25-1.9,2.14-2.44.89-.54,1.87-.81,2.93-.81.81,0,1.49.13,2.03.4.54.27.98.6,1.32,1s.59.79.77,1.18h.17v-2.4h3.96v19.62h-4.01ZM283.05,175.89c.65,0,1.2-.17,1.65-.52.45-.35.8-.84,1.04-1.47.24-.63.36-1.37.36-2.22s-.12-1.59-.36-2.21c-.24-.63-.58-1.11-1.04-1.45-.45-.34-1-.51-1.65-.51s-1.22.18-1.67.53-.8.84-1.03,1.47c-.23.63-.35,1.35-.35,2.17s.12,1.56.35,2.2.58,1.13,1.03,1.49c.45.36,1,.53,1.66.53Z"/>
        <path class="cls-6" d="M302.52,172.73v-8.19h4.02v14.27h-3.86v-2.59h-.15c-.33.84-.87,1.51-1.63,2.02-.76.51-1.68.76-2.77.76-.97,0-1.82-.22-2.56-.65-.74-.43-1.31-1.05-1.72-1.85-.41-.8-.62-1.76-.63-2.87v-9.09h4.02v8.38c0,.84.24,1.51.69,2,.45.49,1.06.73,1.82.73.48,0,.94-.11,1.36-.33.42-.22.76-.55,1.02-.98s.39-.97.38-1.61Z"/>
        <path class="cls-6" d="M316.35,179.08c-1.49,0-2.77-.3-3.84-.9-1.07-.6-1.9-1.45-2.48-2.55-.58-1.1-.87-2.4-.87-3.91s.29-2.76.87-3.87c.58-1.11,1.39-1.97,2.45-2.59,1.05-.62,2.29-.93,3.71-.93.96,0,1.85.15,2.67.45.83.3,1.55.75,2.17,1.35.62.6,1.1,1.35,1.45,2.26.35.91.52,1.97.52,3.18v1.09h-12.23v-2.45h8.45c0-.57-.13-1.07-.38-1.51-.25-.44-.6-.79-1.04-1.04-.44-.25-.96-.38-1.54-.38s-1.15.14-1.62.41c-.47.28-.83.64-1.1,1.11-.26.46-.4.97-.41,1.54v2.33c0,.71.13,1.32.4,1.83s.65.91,1.14,1.19c.49.28,1.07.42,1.74.42.45,0,.85-.06,1.23-.19.37-.12.69-.31.95-.56.26-.25.47-.55.6-.91l3.72.24c-.19.88-.57,1.65-1.16,2.3-.58.65-1.33,1.16-2.24,1.52-.92.36-1.97.54-3.16.54Z"/>
        <path class="cls-6" d="M333.32,164.53v2.97h-8.72v-2.97h8.72ZM326.58,161.11h4.02v13.3c0,.37.06.65.17.85s.27.34.48.42c.2.08.44.12.71.12.19,0,.38-.02.57-.05.19-.03.33-.06.43-.08l.63,2.94c-.2.06-.48.13-.85.22-.36.08-.81.13-1.33.15-.97.04-1.82-.09-2.54-.38-.73-.29-1.29-.74-1.69-1.36-.4-.61-.6-1.39-.59-2.32v-13.82Z"/>
        <path class="cls-6" d="M342.39,179.08c-1.49,0-2.77-.3-3.84-.9-1.07-.6-1.9-1.45-2.48-2.55-.58-1.1-.87-2.4-.87-3.91s.29-2.76.87-3.87c.58-1.11,1.39-1.97,2.45-2.59,1.05-.62,2.29-.93,3.71-.93.96,0,1.85.15,2.67.45.83.3,1.55.75,2.17,1.35.62.6,1.1,1.35,1.45,2.26.35.91.52,1.97.52,3.18v1.09h-12.23v-2.45h8.45c0-.57-.13-1.07-.38-1.51-.25-.44-.6-.79-1.04-1.04-.44-.25-.96-.38-1.54-.38s-1.15.14-1.62.41c-.47.28-.83.64-1.1,1.11-.26.46-.4.97-.41,1.54v2.33c0,.71.13,1.32.4,1.83s.65.91,1.14,1.19c.49.28,1.07.42,1.74.42.45,0,.85-.06,1.23-.19.37-.12.69-.31.95-.56.26-.25.47-.55.6-.91l3.72.24c-.19.88-.57,1.65-1.16,2.3-.58.65-1.33,1.16-2.24,1.52-.92.36-1.97.54-3.16.54Z"/>
        <path class="cls-6" d="M367.39,184.16v-7.64h-.12c-.19.4-.45.79-.8,1.18-.34.39-.79.71-1.33.96s-1.21.38-1.99.38c-1.1,0-2.1-.28-2.98-.84s-1.59-1.39-2.11-2.48-.78-2.44-.78-4.03.27-3,.8-4.08c.53-1.09,1.25-1.9,2.14-2.44.89-.54,1.87-.81,2.93-.81.81,0,1.49.13,2.03.4.54.27.98.6,1.32,1s.59.79.77,1.18h.17v-2.4h3.96v19.62h-4.01ZM364.42,175.89c.65,0,1.2-.17,1.65-.52.45-.35.8-.84,1.04-1.47.24-.63.36-1.37.36-2.22s-.12-1.59-.36-2.21c-.24-.63-.58-1.11-1.04-1.45-.45-.34-1-.51-1.65-.51s-1.22.18-1.67.53-.8.84-1.03,1.47c-.23.63-.35,1.35-.35,2.17s.12,1.56.35,2.2.58,1.13,1.03,1.49c.45.36,1,.53,1.66.53Z"/>
        <path class="cls-6" d="M383.9,172.73v-8.19h4.02v14.27h-3.86v-2.59h-.15c-.33.84-.87,1.51-1.63,2.02-.76.51-1.68.76-2.77.76-.97,0-1.82-.22-2.56-.65-.74-.43-1.31-1.05-1.72-1.85-.41-.8-.62-1.76-.63-2.87v-9.09h4.02v8.38c0,.84.24,1.51.69,2,.45.49,1.06.73,1.82.73.48,0,.94-.11,1.36-.33.42-.22.76-.55,1.02-.98s.39-.97.38-1.61Z"/>
        <path class="cls-6" d="M397.72,179.08c-1.49,0-2.77-.3-3.84-.9-1.07-.6-1.9-1.45-2.48-2.55-.58-1.1-.87-2.4-.87-3.91s.29-2.76.87-3.87c.58-1.11,1.39-1.97,2.45-2.59,1.05-.62,2.29-.93,3.71-.93.96,0,1.85.15,2.67.45.83.3,1.55.75,2.17,1.35.62.6,1.1,1.35,1.45,2.26.35.91.52,1.97.52,3.18v1.09h-12.23v-2.45h8.45c0-.57-.13-1.07-.38-1.51-.25-.44-.6-.79-1.04-1.04-.44-.25-.96-.38-1.54-.38s-1.15.14-1.62.41c-.47.28-.83.64-1.1,1.11-.26.46-.4.97-.41,1.54v2.33c0,.71.13,1.32.4,1.83.27.51.65.91,1.14,1.19s1.07.42,1.75.42c.45,0,.85-.06,1.23-.19.37-.12.69-.31.95-.56.26-.25.47-.55.6-.91l3.72.24c-.19.88-.57,1.65-1.16,2.3-.58.65-1.33,1.16-2.24,1.52s-1.97.54-3.16.54Z"/>
        <path class="cls-6" d="M420.86,164.53v2.97h-8.72v-2.97h8.72ZM414.12,161.11h4.02v13.3c0,.37.06.65.17.85s.27.34.48.42c.2.08.44.12.71.12.19,0,.38-.02.57-.05.19-.03.33-.06.43-.08l.63,2.94c-.2.06-.48.13-.85.22-.36.08-.81.13-1.33.15-.97.04-1.82-.09-2.54-.38-.73-.29-1.29-.74-1.69-1.36-.4-.61-.6-1.39-.59-2.32v-13.82Z"/>
        <path class="cls-6" d="M429.92,179.08c-1.49,0-2.77-.3-3.84-.9s-1.9-1.45-2.48-2.55-.87-2.4-.87-3.91.29-2.76.87-3.87c.58-1.11,1.39-1.97,2.45-2.59,1.05-.62,2.29-.93,3.71-.93.96,0,1.85.15,2.67.45.83.3,1.55.75,2.17,1.35.62.6,1.1,1.35,1.45,2.26.35.91.52,1.97.52,3.18v1.09h-12.23v-2.45h8.45c0-.57-.12-1.07-.38-1.51s-.6-.79-1.04-1.04-.96-.38-1.54-.38-1.15.14-1.62.41c-.47.28-.83.64-1.1,1.11-.26.46-.4.97-.41,1.54v2.33c0,.71.13,1.32.4,1.83.27.51.65.91,1.14,1.19.49.28,1.07.42,1.74.42.45,0,.86-.06,1.23-.19.37-.12.69-.31.95-.56s.46-.55.6-.91l3.72.24c-.19.88-.57,1.65-1.16,2.3-.58.65-1.33,1.16-2.24,1.52-.92.36-1.97.54-3.16.54Z"/>
        <path class="cls-6" d="M67.16,191.17v19.03h-4.02v-19.03h4.02Z"/>
        <path class="cls-6" d="M74.38,191.17v19.03h-4.02v-19.03h4.02Z"/>
        <path class="cls-6" d="M84.19,210.48c-1.49,0-2.77-.3-3.84-.9-1.07-.6-1.9-1.45-2.48-2.55-.58-1.1-.87-2.4-.87-3.91s.29-2.76.87-3.87c.58-1.11,1.39-1.97,2.45-2.59s2.29-.93,3.71-.93c.96,0,1.85.15,2.67.45s1.55.75,2.17,1.35c.62.6,1.1,1.36,1.45,2.26s.52,1.97.52,3.18v1.09h-12.23v-2.45h8.45c0-.57-.13-1.07-.38-1.51-.25-.44-.6-.79-1.04-1.04-.44-.25-.96-.38-1.54-.38s-1.15.14-1.62.41c-.47.28-.83.64-1.1,1.11-.26.46-.4.97-.41,1.54v2.33c0,.71.13,1.32.4,1.83.27.51.65.91,1.14,1.19.49.28,1.07.42,1.74.42.45,0,.85-.06,1.23-.19.37-.12.69-.31.95-.56.26-.25.47-.55.6-.91l3.72.24c-.19.88-.57,1.65-1.16,2.3s-1.33,1.16-2.24,1.52c-.92.36-1.97.54-3.16.54Z"/>
        <path class="cls-6" d="M99.99,215.85c-1.3,0-2.42-.18-3.34-.53s-1.66-.83-2.21-1.43-.9-1.28-1.07-2.03l3.72-.49c.11.28.29.55.54.8.25.25.57.45.98.6.41.15.9.23,1.49.23.87,0,1.6-.21,2.16-.63.57-.42.85-1.12.85-2.09v-2.61h-.17c-.18.4-.44.77-.79,1.12-.35.35-.81.64-1.36.86-.55.22-1.21.33-1.98.33-1.09,0-2.08-.25-2.97-.75-.89-.5-1.6-1.26-2.12-2.29s-.79-2.34-.79-3.92.27-2.97.8-4.05c.53-1.08,1.25-1.9,2.14-2.43s1.87-.81,2.93-.81c.81,0,1.49.13,2.04.4s.99.6,1.33,1c.34.4.6.79.78,1.17h.15v-2.4h3.99v14.41c0,1.21-.3,2.23-.91,3.05-.6.82-1.44,1.43-2.5,1.84-1.07.41-2.29.62-3.67.62ZM100.07,207.02c.65,0,1.2-.16,1.65-.48.45-.32.8-.78,1.04-1.38.24-.6.36-1.31.36-2.15s-.12-1.56-.36-2.18c-.24-.62-.58-1.09-1.04-1.44s-1-.51-1.65-.51-1.22.17-1.67.52c-.45.35-.8.83-1.03,1.45-.23.62-.35,1.33-.35,2.15s.12,1.53.35,2.13c.24.6.58,1.06,1.03,1.38.45.33,1,.49,1.66.49Z"/>
        <path class="cls-6" d="M116.82,210.48c-1.47,0-2.73-.31-3.8-.92-1.07-.62-1.89-1.48-2.47-2.58-.58-1.11-.87-2.39-.87-3.85s.29-2.76.87-3.87c.58-1.11,1.4-1.97,2.47-2.58,1.07-.62,2.33-.92,3.8-.92s2.73.31,3.8.92c1.07.62,1.89,1.48,2.47,2.58.58,1.11.87,2.4.87,3.87s-.29,2.75-.87,3.85c-.58,1.11-1.4,1.97-2.47,2.58-1.07.62-2.33.92-3.8.92ZM116.84,207.41c.67,0,1.22-.19,1.67-.56.45-.37.78-.89,1.01-1.54s.34-1.39.34-2.22-.11-1.57-.34-2.22-.57-1.16-1.01-1.54-1-.57-1.67-.57-1.24.19-1.69.57c-.46.38-.8.89-1.03,1.54s-.34,1.39-.34,2.22.11,1.57.34,2.22.57,1.16,1.03,1.54c.46.38,1.02.56,1.69.56ZM115.38,194.09l2-4.23h3.72l-2.88,4.23h-2.84Z"/>
        <path class="cls-6" d="M130.02,204.5v-.32c0-1.08.1-1.95.3-2.59s.47-1.17.84-1.56c.37-.4.82-.75,1.34-1.08.39-.25.74-.5,1.05-.77.31-.27.55-.56.74-.89.18-.33.27-.69.27-1.09,0-.43-.1-.8-.31-1.12-.21-.32-.49-.57-.83-.74-.35-.17-.73-.26-1.16-.26s-.8.09-1.16.26c-.36.18-.66.44-.9.78-.23.34-.36.77-.38,1.28h-3.85c.03-1.24.33-2.26.91-3.07.57-.81,1.33-1.41,2.27-1.81.94-.4,1.98-.6,3.12-.6,1.25,0,2.36.2,3.32.61.96.41,1.72.99,2.26,1.76.55.77.82,1.69.82,2.78,0,.72-.12,1.37-.36,1.93-.24.56-.58,1.06-1.01,1.49-.43.43-.95.82-1.54,1.17-.5.29-.9.59-1.22.91-.32.32-.55.68-.71,1.1-.15.42-.23.93-.24,1.53v.32h-3.57ZM131.89,210.44c-.63,0-1.16-.22-1.61-.66s-.66-.96-.66-1.58c0-.61.21-1.13.66-1.56s.98-.65,1.61-.65,1.12.22,1.57.65.68.95.69,1.56c0,.41-.11.78-.33,1.12-.21.34-.49.61-.83.81s-.71.3-1.11.3Z"/>
        <path class="cls-6" d="M62.48,257.28v-3.32h15.86v3.32h-5.91v15.71h-4.04v-15.71h-5.91Z"/>
        <path class="cls-6" d="M85.38,273.27c-1.49,0-2.77-.3-3.84-.9-1.07-.6-1.9-1.45-2.48-2.55-.58-1.1-.87-2.4-.87-3.91s.29-2.76.87-3.87c.58-1.11,1.39-1.97,2.45-2.59,1.05-.62,2.29-.93,3.71-.93.96,0,1.85.15,2.67.45.83.3,1.55.75,2.17,1.35s1.1,1.36,1.45,2.26.52,1.97.52,3.18v1.09h-12.23v-2.45h8.45c0-.57-.13-1.08-.38-1.51-.25-.44-.6-.79-1.04-1.04-.44-.25-.96-.38-1.54-.38s-1.15.14-1.62.41-.83.64-1.1,1.11c-.26.46-.4.97-.41,1.54v2.33c0,.71.13,1.32.4,1.83.27.51.65.91,1.14,1.19.49.28,1.07.42,1.74.42.45,0,.85-.06,1.23-.19.37-.12.69-.31.95-.56.26-.25.47-.55.6-.91l3.72.24c-.19.88-.57,1.65-1.16,2.3-.58.65-1.33,1.16-2.24,1.52-.92.36-1.97.54-3.16.54Z"/>
        <path class="cls-6" d="M104.94,273.26c-.92,0-1.75-.16-2.47-.48-.72-.32-1.29-.79-1.71-1.42-.42-.63-.63-1.41-.63-2.35,0-.79.15-1.46.44-2,.3-.54.7-.97,1.21-1.3s1.09-.58,1.74-.74c.65-.17,1.33-.29,2.05-.35.84-.09,1.52-.17,2.04-.25.52-.08.89-.19,1.12-.35.23-.16.35-.38.35-.69v-.06c0-.59-.19-1.04-.56-1.37s-.9-.48-1.59-.48c-.72,0-1.3.16-1.73.47-.43.31-.71.7-.85,1.17l-3.72-.3c.19-.87.56-1.62,1.11-2.25.55-.63,1.27-1.12,2.15-1.47s1.89-.52,3.05-.52c.8,0,1.58.09,2.32.28.74.19,1.4.47,1.97.86.58.39,1.03.89,1.36,1.5.33.61.5,1.34.5,2.19v9.62h-3.81v-1.98h-.11c-.23.45-.54.84-.93,1.17-.39.34-.86.6-1.41.79-.55.19-1.18.28-1.9.28ZM106.09,270.53c.59,0,1.11-.12,1.57-.35s.81-.55,1.07-.94c.26-.4.39-.84.39-1.35v-1.51c-.13.08-.3.15-.51.22-.22.06-.46.12-.73.18-.27.05-.54.1-.81.14-.27.04-.52.08-.74.11-.47.07-.88.18-1.24.33-.35.15-.63.35-.82.6-.2.25-.29.56-.29.93,0,.54.2.95.6,1.23s.91.42,1.52.42Z"/>
        <path class="cls-6" d="M118.17,278.34c-.51,0-.99-.04-1.43-.12s-.81-.17-1.1-.29l.91-2.95c.47.14.9.22,1.28.23.38.01.71-.07.99-.26.28-.19.51-.5.68-.95l.24-.6-5.2-14.68h4.23l3,10.48h.15l3.03-10.48h4.25l-5.63,15.81c-.27.77-.64,1.44-1.1,2.01s-1.05,1.02-1.75,1.33c-.7.31-1.55.47-2.55.47Z"/>
        <path class="cls-6" d="M140.54,266.92v-8.19h4.02v14.27h-3.86v-2.59h-.15c-.33.84-.87,1.51-1.63,2.02-.76.51-1.68.76-2.77.76-.97,0-1.82-.22-2.56-.65-.74-.43-1.31-1.05-1.72-1.85-.41-.8-.62-1.76-.63-2.87v-9.09h4.02v8.38c0,.84.24,1.51.69,2,.45.49,1.06.73,1.82.73.48,0,.94-.11,1.36-.33.42-.22.76-.55,1.02-.98s.39-.97.38-1.61Z"/>
        <path class="cls-6" d="M153.1,273.22c-1.1,0-2.1-.28-2.98-.84s-1.59-1.39-2.11-2.48c-.52-1.09-.78-2.44-.78-4.03s.27-3,.8-4.08c.53-1.09,1.25-1.9,2.14-2.44s1.87-.81,2.93-.81c.81,0,1.49.13,2.03.4.54.27.98.6,1.32,1s.59.79.77,1.17h.12v-7.15h4.01v19.03h-3.96v-2.29h-.17c-.19.4-.45.79-.8,1.17-.34.39-.79.71-1.33.96s-1.21.38-1.99.38ZM154.37,270.08c.65,0,1.2-.18,1.65-.53.45-.35.8-.84,1.04-1.47.24-.63.36-1.37.36-2.22s-.12-1.58-.36-2.21c-.24-.63-.58-1.11-1.04-1.45s-1-.51-1.65-.51-1.22.18-1.67.53c-.45.35-.8.84-1.03,1.47-.23.63-.35,1.35-.35,2.17s.12,1.56.35,2.2c.24.64.58,1.13,1.03,1.49.45.36,1,.53,1.66.53Z"/>
        <path class="cls-6" d="M168.76,273.26c-.92,0-1.75-.16-2.47-.48-.72-.32-1.29-.79-1.71-1.42-.42-.63-.63-1.41-.63-2.35,0-.79.15-1.46.44-2,.3-.54.7-.97,1.21-1.3s1.09-.58,1.74-.74c.65-.17,1.33-.29,2.05-.35.84-.09,1.52-.17,2.04-.25.52-.08.89-.19,1.12-.35.23-.16.35-.38.35-.69v-.06c0-.59-.19-1.04-.56-1.37s-.9-.48-1.59-.48c-.72,0-1.3.16-1.73.47-.43.31-.71.7-.85,1.17l-3.72-.3c.19-.87.56-1.62,1.11-2.25.55-.63,1.27-1.12,2.15-1.47s1.89-.52,3.05-.52c.8,0,1.58.09,2.32.28.74.19,1.4.47,1.97.86.58.39,1.03.89,1.36,1.5.33.61.5,1.34.5,2.19v9.62h-3.81v-1.98h-.11c-.23.45-.54.84-.93,1.17-.39.34-.86.6-1.41.79-.55.19-1.18.28-1.9.28ZM169.92,270.53c.59,0,1.11-.12,1.57-.35s.81-.55,1.07-.94c.26-.4.39-.84.39-1.35v-1.51c-.13.08-.3.15-.51.22-.22.06-.46.12-.73.18-.27.05-.54.1-.81.14-.27.04-.52.08-.74.11-.47.07-.88.18-1.24.33-.35.15-.63.35-.82.6-.2.25-.29.56-.29.93,0,.54.2.95.6,1.23s.91.42,1.52.42Z"/>
        <path class="cls-6" d="M180.04,272.99v-14.27h3.9v2.49h.15c.26-.89.71-1.56,1.33-2.01.62-.46,1.34-.68,2.15-.68.2,0,.42.01.65.04.23.03.44.06.61.1v3.51c-.19-.06-.45-.11-.78-.15-.33-.04-.64-.07-.91-.07-.59,0-1.12.13-1.58.38-.46.25-.83.6-1.09,1.04s-.4.96-.4,1.54v8.07h-4.02Z"/>
        <path class="cls-6" d="M196.82,273.27c-1.49,0-2.77-.3-3.84-.9-1.07-.6-1.9-1.45-2.48-2.55-.58-1.1-.87-2.4-.87-3.91s.29-2.76.87-3.87c.58-1.11,1.39-1.97,2.45-2.59,1.05-.62,2.29-.93,3.71-.93.96,0,1.85.15,2.67.45.83.3,1.55.75,2.17,1.35s1.1,1.36,1.45,2.26.52,1.97.52,3.18v1.09h-12.23v-2.45h8.45c0-.57-.13-1.08-.38-1.51-.25-.44-.6-.79-1.04-1.04-.44-.25-.96-.38-1.54-.38s-1.15.14-1.62.41-.83.64-1.1,1.11c-.26.46-.4.97-.41,1.54v2.33c0,.71.13,1.32.4,1.83.27.51.65.91,1.14,1.19.49.28,1.07.42,1.74.42.45,0,.85-.06,1.23-.19.37-.12.69-.31.95-.56.26-.25.47-.55.6-.91l3.72.24c-.19.88-.57,1.65-1.16,2.3-.58.65-1.33,1.16-2.24,1.52-.92.36-1.97.54-3.16.54Z"/>
        <path class="cls-6" d="M206.09,272.99v-14.27h3.83v2.52h.17c.3-.84.8-1.5,1.51-1.98.7-.48,1.55-.72,2.53-.72s1.84.24,2.54.73,1.16,1.14,1.4,1.97h.15c.3-.82.83-1.47,1.61-1.96.78-.49,1.7-.74,2.76-.74,1.35,0,2.45.42,3.3,1.27.85.85,1.27,2.04,1.27,3.59v9.6h-4.01v-8.82c0-.79-.21-1.39-.64-1.78-.43-.4-.96-.59-1.6-.59-.73,0-1.3.23-1.71.68s-.61,1.05-.61,1.8v8.71h-3.9v-8.9c0-.7-.2-1.26-.61-1.67-.41-.42-.94-.62-1.6-.62-.45,0-.85.11-1.2.33-.35.22-.64.53-.84.92-.21.39-.31.85-.31,1.38v8.57h-4.02Z"/>
        <path class="cls-6" d="M236.85,273.27c-1.47,0-2.73-.31-3.8-.92-1.07-.62-1.89-1.48-2.47-2.58-.58-1.11-.87-2.39-.87-3.85s.29-2.76.87-3.87c.58-1.11,1.4-1.97,2.47-2.58,1.07-.62,2.33-.92,3.8-.92s2.73.31,3.8.92c1.07.62,1.89,1.48,2.47,2.58.58,1.11.87,2.4.87,3.87s-.29,2.75-.87,3.85c-.58,1.11-1.4,1.97-2.47,2.58-1.07.62-2.33.92-3.8.92ZM236.87,270.21c.67,0,1.22-.19,1.67-.56.45-.37.78-.89,1.01-1.54s.34-1.39.34-2.22-.11-1.57-.34-2.22-.57-1.16-1.01-1.54-1-.57-1.67-.57-1.24.19-1.69.57c-.46.38-.8.89-1.03,1.54s-.34,1.39-.34,2.22.11,1.57.34,2.22.57,1.16,1.03,1.54c.46.38,1.02.56,1.69.56Z"/>
        <path class="cls-6" d="M258.66,262.79l-3.68.22c-.06-.31-.2-.59-.41-.84s-.48-.45-.82-.6c-.34-.15-.74-.23-1.2-.23-.62,0-1.15.13-1.58.39-.43.26-.64.6-.64,1.03,0,.34.14.63.42.86.28.24.75.42,1.42.57l2.62.52c1.41.28,2.46.74,3.15,1.38.69.63,1.04,1.46,1.04,2.49,0,.94-.28,1.76-.83,2.46-.56.71-1.32,1.26-2.28,1.65-.97.39-2.08.59-3.33.59-1.92,0-3.44-.39-4.58-1.18-1.13-.79-1.8-1.87-1.99-3.23l3.95-.2c.12.58.41,1.01.87,1.31.46.3,1.05.45,1.76.45s1.27-.13,1.7-.4.65-.62.66-1.05c0-.36-.16-.65-.46-.89s-.77-.41-1.4-.53l-2.51-.49c-1.42-.28-2.47-.76-3.15-1.45s-1.03-1.56-1.03-2.63c0-.92.25-1.71.76-2.37.51-.66,1.22-1.17,2.14-1.53s2-.54,3.24-.54c1.83,0,3.27.38,4.32,1.14,1.05.76,1.67,1.8,1.84,3.11Z"/>
        <path class="cls-6" d="M271.81,273.26c-.92,0-1.75-.16-2.47-.48-.72-.32-1.29-.79-1.71-1.42-.42-.63-.63-1.41-.63-2.35,0-.79.15-1.46.44-2,.3-.54.7-.97,1.21-1.3s1.09-.58,1.74-.74c.65-.17,1.33-.29,2.05-.35.84-.09,1.52-.17,2.04-.25.52-.08.89-.19,1.12-.35.23-.16.35-.38.35-.69v-.06c0-.59-.19-1.04-.56-1.37s-.9-.48-1.59-.48c-.72,0-1.3.16-1.73.47-.43.31-.71.7-.85,1.17l-3.72-.3c.19-.87.56-1.62,1.11-2.25.55-.63,1.27-1.12,2.15-1.47s1.89-.52,3.05-.52c.8,0,1.58.09,2.32.28.74.19,1.4.47,1.97.86.58.39,1.03.89,1.36,1.5.33.61.5,1.34.5,2.19v9.62h-3.81v-1.98h-.11c-.23.45-.54.84-.93,1.17-.39.34-.86.6-1.41.79-.55.19-1.18.28-1.9.28ZM272.97,270.53c.59,0,1.11-.12,1.57-.35s.81-.55,1.07-.94c.26-.4.39-.84.39-1.35v-1.51c-.13.08-.3.15-.51.22-.22.06-.46.12-.73.18-.27.05-.54.1-.81.14-.27.04-.52.08-.74.11-.47.07-.88.18-1.24.33-.35.15-.63.35-.82.6-.2.25-.29.56-.29.93,0,.54.2.95.6,1.23s.91.42,1.52.42Z"/>
        <path class="cls-6" d="M295.8,273.27c-1.48,0-2.76-.31-3.82-.93-1.07-.62-1.88-1.49-2.45-2.6-.57-1.11-.85-2.38-.85-3.83s.29-2.75.86-3.85,1.39-1.97,2.46-2.59c1.06-.62,2.33-.93,3.79-.93,1.26,0,2.37.23,3.32.68.95.45,1.7,1.09,2.25,1.9s.86,1.78.91,2.88h-3.79c-.11-.71-.39-1.29-.84-1.72-.46-.44-1.05-.66-1.79-.66-.62,0-1.16.17-1.63.5-.46.33-.82.81-1.08,1.44s-.39,1.4-.39,2.29.13,1.69.38,2.32c.25.64.61,1.12,1.08,1.46.47.33,1.01.5,1.63.5.46,0,.87-.09,1.24-.28s.67-.46.92-.81c.24-.36.4-.79.48-1.29h3.79c-.06,1.09-.36,2.05-.9,2.88s-1.28,1.47-2.22,1.94c-.94.46-2.06.7-3.35.7Z"/>
        <path class="cls-6" d="M311.4,273.27c-1.47,0-2.73-.31-3.8-.92-1.07-.62-1.89-1.48-2.47-2.58-.58-1.11-.87-2.39-.87-3.85s.29-2.76.87-3.87c.58-1.11,1.4-1.97,2.47-2.58,1.07-.62,2.33-.92,3.8-.92s2.73.31,3.8.92c1.07.62,1.89,1.48,2.47,2.58.58,1.11.87,2.4.87,3.87s-.29,2.75-.87,3.85c-.58,1.11-1.4,1.97-2.47,2.58-1.07.62-2.33.92-3.8.92ZM311.41,270.21c.67,0,1.22-.19,1.67-.56.45-.37.78-.89,1.01-1.54s.34-1.39.34-2.22-.11-1.57-.34-2.22-.57-1.16-1.01-1.54-1-.57-1.67-.57-1.24.19-1.69.57c-.46.38-.8.89-1.03,1.54s-.34,1.39-.34,2.22.11,1.57.34,2.22.57,1.16,1.03,1.54c.46.38,1.02.56,1.69.56Z"/>
        <path class="cls-6" d="M321.15,272.99v-14.27h3.9v2.49h.15c.26-.89.71-1.56,1.33-2.01.62-.46,1.34-.68,2.15-.68.2,0,.42.01.65.04.23.03.44.06.61.1v3.51c-.19-.06-.45-.11-.78-.15-.33-.04-.64-.07-.91-.07-.59,0-1.12.13-1.58.38-.46.25-.83.6-1.09,1.04s-.4.96-.4,1.54v8.07h-4.02Z"/>
        <path class="cls-6" d="M332,272.99v-14.27h3.9v2.49h.15c.26-.89.71-1.56,1.33-2.01.62-.46,1.34-.68,2.15-.68.2,0,.42.01.65.04.23.03.44.06.61.1v3.51c-.19-.06-.45-.11-.78-.15-.33-.04-.64-.07-.91-.07-.59,0-1.12.13-1.58.38-.46.25-.83.6-1.09,1.04s-.4.96-.4,1.54v8.07h-4.02Z"/>
        <path class="cls-6" d="M348.78,273.27c-1.49,0-2.77-.3-3.84-.9-1.07-.6-1.9-1.45-2.48-2.55-.58-1.1-.87-2.4-.87-3.91s.29-2.76.87-3.87c.58-1.11,1.39-1.97,2.45-2.59,1.05-.62,2.29-.93,3.71-.93.96,0,1.85.15,2.67.45.83.3,1.55.75,2.17,1.35s1.1,1.36,1.45,2.26.52,1.97.52,3.18v1.09h-12.23v-2.45h8.45c0-.57-.13-1.08-.38-1.51-.25-.44-.6-.79-1.04-1.04-.44-.25-.96-.38-1.54-.38s-1.15.14-1.62.41-.83.64-1.1,1.11c-.26.46-.4.97-.41,1.54v2.33c0,.71.13,1.32.4,1.83.27.51.65.91,1.14,1.19.49.28,1.07.42,1.74.42.45,0,.85-.06,1.23-.19.37-.12.69-.31.95-.56.26-.25.47-.55.6-.91l3.72.24c-.19.88-.57,1.65-1.16,2.3-.58.65-1.33,1.16-2.24,1.52-.92.36-1.97.54-3.16.54Z"/>
        <path class="cls-6" d="M364.58,278.64c-1.3,0-2.42-.17-3.34-.52s-1.66-.83-2.21-1.43c-.55-.6-.9-1.28-1.07-2.03l3.72-.49c.11.29.29.55.54.8.25.25.57.45.98.6.41.15.9.23,1.49.23.87,0,1.6-.21,2.16-.63.57-.42.85-1.12.85-2.09v-2.61h-.17c-.18.4-.44.77-.79,1.12-.35.35-.81.64-1.36.86-.55.22-1.21.33-1.98.33-1.09,0-2.08-.25-2.97-.75-.89-.5-1.6-1.26-2.12-2.29s-.79-2.34-.79-3.92.27-2.97.8-4.05c.53-1.08,1.25-1.9,2.14-2.43s1.87-.81,2.93-.81c.81,0,1.49.13,2.04.4s.99.6,1.33,1c.34.4.6.79.78,1.17h.15v-2.4h3.99v14.41c0,1.21-.3,2.23-.91,3.05-.6.82-1.44,1.43-2.5,1.84-1.07.41-2.29.62-3.67.62ZM364.66,269.81c.65,0,1.2-.16,1.65-.48.45-.32.8-.78,1.04-1.38.24-.6.36-1.31.36-2.15s-.12-1.56-.36-2.18c-.24-.62-.58-1.09-1.04-1.44s-1-.51-1.65-.51-1.22.18-1.67.53-.8.83-1.03,1.45c-.23.62-.35,1.33-.35,2.15s.12,1.53.35,2.13.58,1.06,1.03,1.38c.45.33,1,.49,1.66.49Z"/>
        <path class="cls-6" d="M376.88,256.88c-.6,0-1.11-.2-1.53-.59-.42-.39-.64-.86-.64-1.41s.21-1.02.64-1.42c.43-.39.94-.59,1.53-.59s1.11.2,1.53.59c.42.39.64.86.64,1.41s-.21,1.02-.64,1.42c-.42.39-.94.59-1.53.59ZM374.86,272.99v-14.27h4.02v14.27h-4.02Z"/>
        <path class="cls-6" d="M382.09,272.99v-14.27h3.9v2.49h.15c.26-.89.71-1.56,1.33-2.01.62-.46,1.34-.68,2.15-.68.2,0,.42.01.65.04.23.03.44.06.61.1v3.51c-.19-.06-.45-.11-.78-.15-.33-.04-.64-.07-.91-.07-.59,0-1.12.13-1.58.38-.46.25-.83.6-1.09,1.04s-.4.96-.4,1.54v8.07h-4.02Z"/>
        <path class="cls-6" d="M396.96,253.96v19.03h-4.02v-19.03h4.02Z"/>
        <path class="cls-6" d="M406.71,273.27c-1.46,0-2.73-.31-3.8-.92s-1.89-1.48-2.47-2.58c-.58-1.11-.87-2.39-.87-3.85s.29-2.76.87-3.87c.58-1.11,1.4-1.97,2.47-2.58s2.33-.92,3.8-.92,2.73.31,3.8.92,1.89,1.48,2.47,2.58c.58,1.11.87,2.4.87,3.87s-.29,2.75-.87,3.85c-.58,1.11-1.4,1.97-2.47,2.58s-2.33.92-3.8.92ZM406.73,270.21c.67,0,1.22-.19,1.67-.56.45-.37.78-.89,1.01-1.54s.34-1.39.34-2.22-.11-1.57-.34-2.22-.57-1.16-1.01-1.54-1-.57-1.67-.57-1.24.19-1.69.57-.8.89-1.03,1.54-.34,1.39-.34,2.22.11,1.57.34,2.22.57,1.16,1.03,1.54c.46.38,1.02.56,1.69.56Z"/>
        <path class="cls-6" d="M69.74,304.67c-1.49,0-2.77-.3-3.84-.9-1.07-.6-1.9-1.45-2.48-2.55-.58-1.1-.87-2.4-.87-3.91s.29-2.76.87-3.87c.58-1.11,1.39-1.97,2.45-2.59,1.05-.62,2.29-.93,3.71-.93.96,0,1.85.15,2.67.45.83.3,1.55.75,2.17,1.35s1.1,1.36,1.45,2.26.52,1.97.52,3.18v1.09h-12.23v-2.45h8.45c0-.57-.13-1.08-.38-1.51-.25-.44-.6-.79-1.04-1.04-.44-.25-.96-.38-1.54-.38s-1.15.14-1.62.41-.83.64-1.1,1.11c-.26.46-.4.97-.41,1.54v2.33c0,.71.13,1.32.4,1.83.27.51.65.91,1.14,1.19.49.28,1.07.42,1.74.42.45,0,.85-.06,1.23-.19.37-.12.69-.31.95-.56.26-.25.47-.55.6-.91l3.72.24c-.19.88-.57,1.65-1.16,2.3-.58.65-1.33,1.16-2.24,1.52-.92.36-1.97.54-3.16.54Z"/>
        <path class="cls-6" d="M83.03,296.14v8.25h-4.02v-14.27h3.83v2.52h.17c.32-.83.86-1.49,1.61-1.97.75-.49,1.67-.73,2.74-.73,1.01,0,1.88.22,2.63.65.75.43,1.33,1.05,1.74,1.85.42.8.62,1.76.62,2.87v9.09h-4.02v-8.38c0-.87-.22-1.56-.68-2.05-.46-.49-1.09-.74-1.9-.74-.54,0-1.02.12-1.43.34-.41.23-.73.56-.96,1s-.35.96-.35,1.58Z"/>
        <path class="cls-6" d="M107.58,294.19l-3.68.22c-.06-.31-.2-.59-.41-.84s-.48-.45-.82-.6c-.34-.15-.74-.23-1.2-.23-.62,0-1.15.13-1.58.39-.43.26-.64.6-.64,1.03,0,.34.14.63.42.86.28.24.75.42,1.42.57l2.62.52c1.41.28,2.46.74,3.15,1.38.69.63,1.04,1.46,1.04,2.49,0,.94-.28,1.76-.83,2.46-.56.71-1.32,1.26-2.28,1.65-.97.39-2.08.59-3.33.59-1.92,0-3.44-.39-4.58-1.18-1.13-.79-1.8-1.87-1.99-3.23l3.95-.2c.12.58.41,1.01.87,1.31.46.3,1.05.45,1.76.45s1.27-.13,1.7-.4.65-.62.66-1.05c0-.36-.16-.65-.46-.89s-.77-.41-1.4-.53l-2.51-.49c-1.42-.28-2.47-.76-3.15-1.45s-1.03-1.56-1.03-2.63c0-.92.25-1.71.76-2.37.51-.66,1.22-1.17,2.14-1.53s2-.54,3.24-.54c1.83,0,3.27.38,4.32,1.14,1.05.76,1.67,1.8,1.84,3.11Z"/>
        <path class="cls-6" d="M117.05,304.67c-1.49,0-2.77-.3-3.84-.9-1.07-.6-1.9-1.45-2.48-2.55-.58-1.1-.87-2.4-.87-3.91s.29-2.76.87-3.87c.58-1.11,1.39-1.97,2.45-2.59,1.05-.62,2.29-.93,3.71-.93.96,0,1.85.15,2.67.45.83.3,1.55.75,2.17,1.35s1.1,1.36,1.45,2.26.52,1.97.52,3.18v1.09h-12.23v-2.45h8.45c0-.57-.13-1.08-.38-1.51-.25-.44-.6-.79-1.04-1.04-.44-.25-.96-.38-1.54-.38s-1.15.14-1.62.41-.83.64-1.1,1.11c-.26.46-.4.97-.41,1.54v2.33c0,.71.13,1.32.4,1.83.27.51.65.91,1.14,1.19.49.28,1.07.42,1.74.42.45,0,.85-.06,1.23-.19.37-.12.69-.31.95-.56.26-.25.47-.55.6-.91l3.72.24c-.19.88-.57,1.65-1.16,2.3-.58.65-1.33,1.16-2.24,1.52-.92.36-1.97.54-3.16.54Z"/>
        <path class="cls-6" d="M132.84,310.04c-1.3,0-2.42-.17-3.34-.52s-1.66-.83-2.21-1.43c-.55-.6-.9-1.28-1.07-2.03l3.72-.49c.11.29.29.55.54.8.25.25.57.45.98.6.41.15.9.23,1.49.23.87,0,1.6-.21,2.16-.63.57-.42.85-1.12.85-2.09v-2.61h-.17c-.18.4-.44.77-.79,1.12-.35.35-.81.64-1.36.86-.55.22-1.21.33-1.98.33-1.09,0-2.08-.25-2.97-.75-.89-.5-1.6-1.26-2.12-2.29s-.79-2.34-.79-3.92.27-2.97.8-4.05c.53-1.08,1.25-1.9,2.14-2.43s1.87-.81,2.93-.81c.81,0,1.49.13,2.04.4s.99.6,1.33,1c.34.4.6.79.78,1.17h.15v-2.4h3.99v14.41c0,1.21-.3,2.23-.91,3.05-.6.82-1.44,1.43-2.5,1.84-1.07.41-2.29.62-3.67.62ZM132.93,301.21c.65,0,1.2-.16,1.65-.48.45-.32.8-.78,1.04-1.38.24-.6.36-1.31.36-2.15s-.12-1.56-.36-2.18c-.24-.62-.58-1.09-1.04-1.44s-1-.51-1.65-.51-1.22.18-1.67.53-.8.83-1.03,1.45c-.23.62-.35,1.33-.35,2.15s.12,1.53.35,2.13.58,1.06,1.03,1.38c.45.33,1,.49,1.66.49Z"/>
        <path class="cls-6" d="M152.42,298.31v-8.19h4.02v14.27h-3.86v-2.59h-.15c-.33.84-.87,1.51-1.63,2.02-.76.51-1.68.76-2.77.76-.97,0-1.82-.22-2.56-.65-.74-.43-1.31-1.05-1.72-1.85-.41-.8-.62-1.76-.63-2.87v-9.09h4.02v8.38c0,.84.24,1.51.69,2,.45.49,1.06.73,1.82.73.48,0,.94-.11,1.36-.33.42-.22.76-.55,1.02-.98s.39-.97.38-1.61Z"/>
        <path class="cls-6" d="M161.66,288.28c-.6,0-1.11-.2-1.53-.59-.42-.39-.64-.86-.64-1.41s.21-1.02.64-1.42c.43-.39.94-.59,1.53-.59s1.11.2,1.53.59c.42.39.64.86.64,1.41s-.21,1.02-.64,1.42c-.42.39-.94.59-1.53.59ZM159.64,304.39v-14.27h4.02v14.27h-4.02Z"/>
        <path class="cls-6" d="M172.21,304.62c-1.1,0-2.1-.28-2.98-.84s-1.59-1.39-2.11-2.48c-.52-1.09-.78-2.44-.78-4.03s.27-3,.8-4.08c.53-1.09,1.25-1.9,2.14-2.44s1.87-.81,2.93-.81c.81,0,1.49.13,2.03.4.54.27.98.6,1.32,1s.59.79.77,1.17h.12v-7.15h4.01v19.03h-3.96v-2.29h-.17c-.19.4-.45.79-.8,1.17-.34.39-.79.71-1.33.96s-1.21.38-1.99.38ZM173.48,301.47c.65,0,1.2-.18,1.65-.53.45-.35.8-.84,1.04-1.47.24-.63.36-1.37.36-2.22s-.12-1.58-.36-2.21c-.24-.63-.58-1.11-1.04-1.45s-1-.51-1.65-.51-1.22.18-1.67.53c-.45.35-.8.84-1.03,1.47-.23.63-.35,1.35-.35,2.17s.12,1.56.35,2.2c.24.64.58,1.13,1.03,1.49.45.36,1,.53,1.66.53Z"/>
        <path class="cls-6" d="M187.87,304.66c-.92,0-1.75-.16-2.47-.48-.72-.32-1.29-.79-1.71-1.42-.42-.63-.63-1.41-.63-2.35,0-.79.15-1.46.44-2,.3-.54.7-.97,1.21-1.3s1.09-.58,1.74-.74c.65-.17,1.33-.29,2.05-.35.84-.09,1.52-.17,2.04-.25.52-.08.89-.19,1.12-.35.23-.16.35-.38.35-.69v-.06c0-.59-.19-1.04-.56-1.37s-.9-.48-1.59-.48c-.72,0-1.3.16-1.73.47-.43.31-.71.7-.85,1.17l-3.72-.3c.19-.87.56-1.62,1.11-2.25.55-.63,1.27-1.12,2.15-1.47s1.89-.52,3.05-.52c.8,0,1.58.09,2.32.28.74.19,1.4.47,1.97.86.58.39,1.03.89,1.36,1.5.33.61.5,1.34.5,2.19v9.62h-3.81v-1.98h-.11c-.23.45-.54.84-.93,1.17-.39.34-.86.6-1.41.79-.55.19-1.18.28-1.9.28ZM189.02,301.93c.59,0,1.11-.12,1.57-.35s.81-.55,1.07-.94c.26-.4.39-.84.39-1.35v-1.51c-.13.08-.3.15-.51.22-.22.06-.46.12-.73.18-.27.05-.54.1-.81.14-.27.04-.52.08-.74.11-.47.07-.88.18-1.24.33-.35.15-.63.35-.82.6-.2.25-.29.56-.29.93,0,.54.2.95.6,1.23s.91.42,1.52.42Z"/>
        <g>
          <path class="cls-3" d="M204.59,299.41c-.38-2.78,1.36-7.25,2.18-13.27.15-1.08,5.82-2.21,8.46-2.21.68,0,1.25,3.05,1.08,4.12-.12.77-1.23.57-1.23.57-.37,1.03-1.48.63-1.48.63-.32.87-1.33.47-1.33.47-.41.81-1.34.42-1.34.42-.83,3.54.71,3.23,1.83,8.6,0,0,.32-.06,1.2-1.81,3.57-7.09,16.1-4.82,15.36,2.76-.17,1.69,1.64,4.45-5.1,6.53-5.35,1.64-11.92-1.51-11.92-1.51-2.24.68-6.59.63-6.72-1-.15-1.9-.81-2.86-1-4.29Z"/>
          <path class="cls-7" d="M229.33,299.67c.18-1.8-.38-3.25-1.35-4.35.59.97.89,2.16.75,3.55-.17,1.7,1.64,4.45-5.1,6.53-5.35,1.64-11.92-1.51-11.92-1.51-1.75.53-4.82.62-6.11-.15.17,1.58,4.49,1.62,6.71.95,0,0,6.58,3.15,11.92,1.51,6.74-2.07,4.93-4.83,5.1-6.53Z"/>
          <path class="cls-7" d="M210.45,290.07c-1.05,4.18.64,4,1.78,9.29l.6-.61c-.83-5.3-2.26-4.66-1.91-8.59-.26,0-.46-.1-.46-.1Z"/>
          <path class="cls-7" d="M215.83,301.97c3.45,1.27,8.64-.03,11.59-1.37-1.32,3.05-8.17,4.67-11.59,1.37Z"/>
          <path class="cls-7" d="M214.12,285.08c-.24-.46-.74-.41-1.08-.27.04-.48,1.27-.84,1.08.27Z"/>
          <path class="cls-7" d="M216.64,286.85c-.1-.9-.42-1.79-.97-2.52.3.76.44,1.58.45,2.39,0,.37.09,1.67-.57,1.5-.41-.1-.42-.45-.53-.8-.18-.55-.49-1.19-.46-1.77-.15.57.03,1.26.1,1.85.04.34.29,1.25-.16,1.38-.25.07-.54-.09-.75-.21-.08-.05-.14-.38-.17-.47-.18-.57-.5-1.23-.46-1.83-.16.54,0,1.19.04,1.75.03.34.22,1.09-.2,1.26-.48.23-.55-.33-.64-.62-.17-.54-.43-1.13-.43-1.7-.17.69.03,1.5.06,2.21.02.35-.79.67-1.09.45-.47-.35-.55-1.16-.6-1.68.14.18.34.4.6.38-.22-.23-.31-.62-.46-.9-.13-.23-.41-.77-.73-.78.05.1.32.77.28.84-.13.22-.26.45-.4.66-.12.18-.48.75-.77.58-.31-.19-.41-.7-.51-1.01.02.4.01,1.03.41,1.27.38.23.82-.13,1.07-.39.09.83.44,1.92,1.5,1.85.22-.01.44-.08.64-.18.17-.08.36-.27.53-.22.44.13.92.05,1.24-.3.15-.16.11-.26.33-.21.24.05.48.06.71,0,.19-.05.36-.17.49-.31.07-.08.13-.18.18-.28.07-.16.15-.08.32-.08,1.08-.04,1.04-1.35.94-2.11-.11-.91.03.23,0,0Z"/>
          <path class="cls-7" d="M215.63,284.52c-.24-.46-.74-.41-1.08-.27.04-.48,1.27-.85,1.08.27Z"/>
          <path class="cls-7" d="M212.91,285.7c-.24-.46-.74-.41-1.08-.27.04-.48,1.27-.84,1.08.27Z"/>
          <path class="cls-7" d="M211.51,286.34c-.24-.46-.74-.41-1.08-.27.04-.48,1.27-.84,1.08.27Z"/>
        </g>
        <g>
          <path class="cls-2" d="M239.39,282.15c0,6.9-3.79,13.08-9.13,13.08,5.34,0,9.13,6.18,9.13,13.08,0-6.9,3.79-13.08,9.13-13.08-5.34,0-9.13-6.18-9.13-13.08Z"/>
          <path class="cls-5" d="M252.26,282.15c0,3.45-1.89,6.54-4.56,6.54,2.67,0,4.56,3.09,4.56,6.54,0-3.45,1.89-6.54,4.56-6.54-2.67,0-4.56-3.09-4.56-6.54Z"/>
          <path class="cls-4" d="M250.18,295.23c0,3.45-1.89,6.54-4.56,6.54,2.67,0,4.56,3.09,4.56,6.54,0-3.45,1.89-6.54,4.56-6.54-2.67,0-4.56-3.09-4.56-6.54Z"/>
        </g>
      </g>
    </g>
  </g>
</svg>