<?xml version="1.0" encoding="UTF-8"?>
<svg id="Capa_2" data-name="Capa 2" xmlns="http://www.w3.org/2000/svg" xmlns:xlink="http://www.w3.org/1999/xlink" viewBox="0 0 612.4 1290.46">
  <defs>
    <style>
      .cls-1 {
        filter: url(#drop-shadow-1);
      }

      .cls-2 {
        fill: #1f1d1c;
      }

      .cls-2, .cls-3, .cls-4, .cls-5, .cls-6, .cls-7 {
        fill-rule: evenodd;
      }

      .cls-3 {
        fill: #2d2b2a;
      }

      .cls-4 {
        fill: #12110c;
      }

      .cls-5 {
        fill: #0096fa;
      }

      .cls-8 {
        fill: url(#Degradado_sin_nombre_1290);
      }

      .cls-9 {
        fill: #004393;
      }

      .cls-6 {
        fill: #191d2b;
      }

      .cls-7 {
        fill: #2c2e82;
      }
    </style>
    <filter id="drop-shadow-1" x="-42.54" y="-48.15" width="740" height="1419" filterUnits="userSpaceOnUse">
      <feOffset dx="21.09" dy="15.82"/>
      <feGaussianBlur result="blur" stdDeviation="21.09"/>
      <feFlood flood-color="#0c4ec0" flood-opacity=".69"/>
      <feComposite in2="blur" operator="in"/>
      <feComposite in="SourceGraphic"/>
    </filter>
    <linearGradient id="Degradado_sin_nombre_1290" data-name="Degradado sin nombre 1290" x1="-479.3" y1="-84.36" x2="396.07" y2="727.45" gradientUnits="userSpaceOnUse">
      <stop offset="0" stop-color="#1968f0"/>
      <stop offset="1" stop-color="#0c4ec0"/>
    </linearGradient>
  </defs>
  <g id="smartphone">
    <g class="cls-1">
      <path class="cls-8" d="M590.56,1187.62c0,45.1-35.49,81.66-79.28,81.66H101.12c-43.78,0-79.27-36.56-79.27-81.66V100.59c0-45.1,35.49-81.66,79.27-81.66h410.15c43.79,0,79.28,36.56,79.28,81.66v1087.03h0Z"/>
      <path class="cls-5" d="M590.56,1187.62c0,45.1-35.49,81.66-79.28,81.66H101.12c-43.78,0-79.27-36.56-79.27-81.66V100.59c0-45.1,35.49-81.66,79.27-81.66h410.15c43.79,0,79.28,36.56,79.28,81.66v1087.03h0ZM583.87,29.34c-18.26-18.79-43.03-29.34-68.87-29.34H97.4c-25.83,0-50.61,10.55-68.87,29.34C10.27,48.12,0,73.59,0,100.15v1090.14c0,26.56,10.27,52.04,28.53,70.82,18.26,18.78,43.03,29.34,68.87,29.34h417.61c25.83,0,50.61-10.55,68.87-29.34,18.28-18.79,28.53-44.26,28.53-70.82V100.15c0-26.56-10.25-52.04-28.53-70.82h0Z"/>
      <path class="cls-9" d="M590.56,1187.62c0,45.1-35.49,81.66-79.28,81.66H101.12c-43.78,0-79.27-36.56-79.27-81.66V100.59c0-45.1,35.49-81.66,79.27-81.66h410.15c43.79,0,79.28,36.56,79.28,81.66v1087.03h0ZM509.28,4.6H103.13c-25.83,0-50.61,10.57-68.87,29.39C16,52.8,5.73,78.32,5.73,104.93v1078.35c0,26.61,10.27,52.13,28.53,70.94,18.26,18.81,43.03,29.39,68.87,29.39h406.15c25.83,0,50.6-10.57,68.88-29.39,18.26-18.82,28.52-44.34,28.52-70.94V104.93c0-26.61-10.25-52.13-28.52-70.94-18.28-18.82-43.05-29.39-68.88-29.39h0Z"/>
      <g>
        <path class="cls-4" d="M242.41,44.13h127.56c14.61,0,26.44,12.19,26.44,27.23h0c0,15.04-11.84,27.23-26.44,27.23h-127.56c-14.59,0-26.43-12.19-26.43-27.23h0c0-15.04,11.83-27.23,26.43-27.23h0Z"/>
        <path class="cls-2" d="M242.79,86.46c-8.04,0-14.56-6.77-14.56-15.1s6.53-15.11,14.56-15.11,14.58,6.77,14.58,15.11-6.53,15.1-14.58,15.1h0Z"/>
        <path class="cls-3" d="M242.79,81.59c-5.44,0-9.86-4.59-9.86-10.23s4.43-10.24,9.86-10.24,9.88,4.59,9.88,10.24-4.43,10.23-9.88,10.23h0Z"/>
        <path class="cls-6" d="M242.79,80.05c-4.61,0-8.37-3.89-8.37-8.69s3.76-8.69,8.37-8.69,8.38,3.89,8.38,8.69-3.76,8.69-8.38,8.69h0Z"/>
        <path class="cls-7" d="M240.32,77.25c-2.88,1.26-3.9-2.64-3.9-5.89s.96-6.95,3.9-5.88c1.99.72,2.37,10.73,0,11.77h0Z"/>
        <path class="cls-6" d="M245.08,78.07c-3.67,0-1.32-2.31-1.32-6.12s-2.45-6.81,1.23-6.81,4.47,2.4,4.47,6.22-.7,6.71-4.38,6.71h0Z"/>
      </g>
    </g>
  </g>
</svg>